<svg width="30" height="30" viewBox="0 0 30 30" fill="none" xmlns="http://www.w3.org/2000/svg">
<path d="M14.9998 0.300003C6.8818 0.300003 0.299805 6.882 0.299805 15C0.299805 23.118 6.8818 29.7 14.9998 29.7C23.1178 29.7 29.6998 23.118 29.6998 15C29.6998 6.882 23.1178 0.300003 14.9998 0.300003ZM11.5228 23.115H7.1218V18.717H11.5228V23.115ZM11.5228 17.22H7.1218V12.819H11.5228V17.22ZM11.5228 11.322H7.1218V6.921H11.5228V11.322ZM17.1568 23.115H12.7558V18.717H17.1568V23.115ZM17.1568 17.22H12.7558V12.819H17.1568V17.22ZM17.1568 11.322H12.7558V6.921H17.1568V11.322ZM22.8778 23.115H18.4768V18.717H22.8778V23.115V23.115ZM22.8778 17.22H18.4768V12.819H22.8778V17.22V17.22ZM22.8778 11.322H18.4768V6.921H22.8778V11.322V11.322Z" fill="#E9322E"/>
</svg>
