<svg width="29" height="28" viewBox="0 0 29 28" fill="none" xmlns="http://www.w3.org/2000/svg">
<path fill-rule="evenodd" clip-rule="evenodd" d="M0.916504 14.0417C0.916504 6.69909 7.07074 0.75 14.6665 0.75C14.6906 0.75 14.7147 0.75006 14.7388 0.75018C14.7147 0.75006 14.6906 0.75 14.6665 0.75C7.07262 0.75 0.916532 6.70088 0.916532 14.0417C0.916532 21.3825 7.07262 27.3333 14.6665 27.3333C7.07074 27.3333 0.916504 21.3842 0.916504 14.0417ZM14.6665 27.3333C14.6906 27.3333 14.7147 27.3333 14.7388 27.3332C14.7147 27.3333 14.6906 27.3333 14.6665 27.3333ZM14.7388 27.3332C21.9513 27.2973 27.8473 21.8977 28.3777 15.0486C27.8471 21.8962 21.9495 27.2973 14.7388 27.3332ZM28.3777 15.0486C28.4034 14.7162 28.4165 14.3804 28.4165 14.0417C28.4165 13.7029 28.4034 13.3671 28.3777 13.0347C28.4034 13.3671 28.4165 13.7029 28.4165 14.0417C28.4165 14.3804 28.4034 14.7162 28.3777 15.0486ZM14.7388 0.75018C21.9494 0.786045 27.8471 6.18717 28.3777 13.0347C27.8473 6.18567 21.9513 0.78604 14.7388 0.75018ZM12.0828 12.3266L16.2688 8.4463C16.8066 7.94787 16.8177 7.11714 16.291 6.60262L15.6811 6.01843C15.1655 5.51463 14.3228 5.51463 13.8016 6.01843L6.44423 13.1359C5.92306 13.6343 5.92306 14.449 6.44423 14.9528L13.8016 22.0595C14.3172 22.5633 15.16 22.5633 15.6811 22.0595L16.291 21.4754C16.8177 20.9662 16.8066 20.1355 16.2688 19.637L12.0828 15.7567H22.2068C22.9442 15.7567 23.5375 15.1832 23.5375 14.4704V13.6129C23.5375 12.9001 22.9442 12.3266 22.2068 12.3266H12.0828Z" fill="#E9322E"/>
</svg>
