<svg width="30" height="30" viewBox="0 0 30 30" fill="none" xmlns="http://www.w3.org/2000/svg">
<path d="M22.3126 19.2L25.9837 4.82534H30V2.56586H24.2288L23.3634 5.95442L0 5.93771L2.48387 19.1999H22.3126V19.2ZM22.7865 8.21351L20.5576 16.9404H4.35945L2.72228 8.19916L22.7865 8.21351Z" fill="#E9322E"/>
<path d="M19.2199 27.4342C21.2123 27.4342 22.8332 25.8133 22.8332 23.8209C22.8332 21.8285 21.2123 20.2076 19.2199 20.2076H5.60648C3.61411 20.2076 1.99316 21.8285 1.99316 23.8209C1.99316 25.8133 3.61408 27.4342 5.60648 27.4342C7.59888 27.4342 9.21977 25.8133 9.21977 23.8209C9.21977 23.3424 9.12603 22.8855 8.95637 22.4671H15.87C15.7003 22.8855 15.6066 23.3424 15.6066 23.8209C15.6066 25.8133 17.2276 27.4342 19.2199 27.4342ZM6.96028 23.8209C6.96028 24.5674 6.35298 25.1747 5.60648 25.1747C4.85999 25.1747 4.25265 24.5674 4.25265 23.8209C4.25265 23.0744 4.85995 22.4671 5.60648 22.4671C6.35298 22.4671 6.96028 23.0744 6.96028 23.8209ZM20.5738 23.8209C20.5738 24.5674 19.9664 25.1747 19.22 25.1747C18.4735 25.1747 17.8662 24.5674 17.8662 23.8209C17.8662 23.0744 18.4735 22.4671 19.22 22.4671C19.9664 22.4671 20.5738 23.0744 20.5738 23.8209Z" fill="#E9322E"/>
</svg>
