<svg width="30" height="30" viewBox="0 0 30 30" fill="none" xmlns="http://www.w3.org/2000/svg">
<path d="M0.299805 7.389C0.299805 8.643 1.3168 9.657 2.5678 9.657C3.8218 9.657 4.8358 8.64 4.8358 7.389C4.8358 6.135 3.8188 5.121 2.5678 5.121C1.3168 5.121 0.299805 6.135 0.299805 7.389Z" fill="#E9322E"/>
<path d="M27.4318 9.657H9.77679C8.52879 9.657 7.50879 8.634 7.50879 7.389C7.50879 6.141 8.53179 5.121 9.77679 5.121H27.4318C28.6798 5.121 29.6998 6.144 29.6998 7.389C29.6998 8.637 28.6768 9.657 27.4318 9.657Z" fill="#E9322E"/>
<path d="M0.299805 15C0.299805 16.254 1.3168 17.268 2.5678 17.268C3.8218 17.268 4.8358 16.251 4.8358 15C4.8358 13.746 3.8188 12.732 2.5678 12.732C1.3168 12.732 0.299805 13.746 0.299805 15Z" fill="#E9322E"/>
<path d="M27.4318 17.268H9.77679C8.52879 17.268 7.50879 16.245 7.50879 15C7.50879 13.752 8.53179 12.732 9.77679 12.732H27.4318C28.6798 12.732 29.6998 13.755 29.6998 15C29.6998 16.248 28.6768 17.268 27.4318 17.268Z" fill="#E9322E"/>
<path d="M0.299805 22.608C0.299805 23.862 1.3168 24.876 2.5678 24.876C3.8218 24.876 4.8358 23.859 4.8358 22.608C4.8358 21.354 3.8188 20.34 2.5678 20.34C1.3168 20.337 0.299805 21.354 0.299805 22.608Z" fill="#E9322E"/>
<path d="M27.4318 24.879H9.77679C8.52879 24.879 7.50879 23.856 7.50879 22.611C7.50879 21.363 8.53179 20.343 9.77679 20.343H27.4318C28.6798 20.343 29.6998 21.366 29.6998 22.611C29.6998 23.859 28.6768 24.879 27.4318 24.879Z" fill="#E9322E"/>
</svg>
