<svg width="37" height="35" viewBox="0 0 37 35" fill="none" xmlns="http://www.w3.org/2000/svg">
<path d="M18.7842 0.546875C28.5325 0.546875 36.4308 8.13477 36.4308 17.5C36.4308 26.8652 28.5325 34.4531 18.7842 34.4531C9.03585 34.4531 1.13757 26.8652 1.13757 17.5C1.13757 8.13477 9.03585 0.546875 18.7842 0.546875ZM16.7278 10.3633L22.1 15.3125H9.107C8.16063 15.3125 7.39927 16.0439 7.39927 16.9531V18.0469C7.39927 18.9561 8.16063 19.6875 9.107 19.6875H22.1L16.7278 24.6367C16.0376 25.2725 16.0233 26.332 16.6993 26.9814L17.482 27.7266C18.1509 28.3691 19.2324 28.3691 19.8942 27.7266L29.3365 18.6621C30.0054 18.0195 30.0054 16.9805 29.3365 16.3447L19.8942 7.2666C19.2253 6.62402 18.1438 6.62402 17.482 7.2666L16.6993 8.01172C16.0233 8.66797 16.0376 9.72754 16.7278 10.3633Z" fill="#E9322E"/>
</svg>
