<svg width="37" height="35" viewBox="0 0 37 35" fill="none" xmlns="http://www.w3.org/2000/svg">
<path d="M18.2158 0.546875C8.46751 0.546875 0.569237 8.13477 0.569237 17.5C0.569237 26.8652 8.46751 34.4531 18.2158 34.4531C27.9642 34.4531 35.8624 26.8652 35.8624 17.5C35.8624 8.13477 27.9642 0.546875 18.2158 0.546875ZM20.2722 10.3633L14.9 15.3125H27.893C28.8394 15.3125 29.6007 16.0439 29.6007 16.9531V18.0469C29.6007 18.9561 28.8394 19.6875 27.893 19.6875H14.9L20.2722 24.6367C20.9624 25.2725 20.9767 26.332 20.3007 26.9814L19.518 27.7266C18.8491 28.3691 17.7676 28.3691 17.1058 27.7266L7.66345 18.6621C6.99459 18.0195 6.99459 16.9805 7.66345 16.3447L17.1058 7.2666C17.7747 6.62402 18.8562 6.62402 19.518 7.2666L20.3007 8.01172C20.9767 8.66797 20.9624 9.72754 20.2722 10.3633Z" fill="#E9322E"/>
</svg>
