<svg width="50" height="50" viewBox="0 0 50 50" fill="none" xmlns="http://www.w3.org/2000/svg">
<path d="M5.00732 14.71L24.9998 24.705L44.9923 14.71C44.9183 13.4361 44.3601 12.2387 43.4319 11.3631C42.5037 10.4874 41.2759 9.99977 39.9998 10H9.99982C8.72379 9.99977 7.49594 10.4874 6.56777 11.3631C5.63959 12.2387 5.08133 13.4361 5.00732 14.71V14.71Z" fill="#E9322E"/>
<path d="M45 20.2949L25 30.2949L5 20.2949V34.9999C5 36.326 5.52678 37.5978 6.46447 38.5355C7.40215 39.4731 8.67392 39.9999 10 39.9999H40C41.3261 39.9999 42.5979 39.4731 43.5355 38.5355C44.4732 37.5978 45 36.326 45 34.9999V20.2949Z" fill="#E9322E"/>
</svg>
