<svg width="28" height="28" viewBox="0 0 40 40" fill="none" xmlns="http://www.w3.org/2000/svg">
<path d="M19.9999 24.9521L6.39593 38.5561C5.01193 39.9401 2.79193 39.9441 1.42393 38.5761C0.0479347 37.2001 0.0639347 34.9841 1.44393 33.6041L15.0479 20.0001L1.44393 6.39606C0.0599348 5.01206 0.0559347 2.79206 1.42393 1.42406C2.79993 0.0480567 5.01593 0.0640568 6.39593 1.44406L19.9999 15.0481L33.6039 1.44406C34.9879 0.0600568 37.2079 0.0560568 38.5759 1.42406C39.9519 2.80006 39.9359 5.01606 38.5559 6.39606L24.9519 20.0001L38.5559 33.6041C39.9399 34.9881 39.9439 37.2081 38.5759 38.5761C37.1999 39.9521 34.9839 39.9361 33.6039 38.5561L19.9999 24.9521Z" fill="#E9322E"/>
</svg>
