<svg width="30" height="24" viewBox="0 0 30 24" fill="none" xmlns="http://www.w3.org/2000/svg">
<g clip-path="url(#clip0_435_634)">
<path d="M11.0937 0H3.89404C2.81982 0 1.89941 0.378418 1.13525 1.13525C0.368652 1.89209 0 2.8125 0 3.89404V10.73C0 11.814 0.378418 12.7344 1.13525 13.4888C1.89209 14.2456 2.8125 14.624 3.89404 14.624H7.09473C6.87012 15.4834 6.59668 16.3013 6.25244 17.0654C5.91797 17.8394 5.3418 18.5791 4.55078 19.2847C6.07178 18.8892 7.42187 18.2959 8.61816 17.5146C9.80469 16.7407 10.8374 15.769 11.687 14.6265H14.2651C15.3394 14.6265 16.2598 14.2407 17.0239 13.4912C17.7881 12.7344 18.1592 11.814 18.1592 10.7324V3.89648C18.1592 2.82227 17.7808 1.90186 17.0239 1.1377C16.2695 0.368652 15.3491 0 14.2651 0H11.0937ZM23.9355 13.8452H21.6553L21.3281 14.8608H19.2749L21.7261 8.70361H23.9282L26.3672 14.8608H24.2603L23.9355 13.8452ZM23.5107 12.5122L22.8003 10.3003L22.0874 12.5122H23.5107ZM11.8188 9.2041C12.085 9.37988 12.2607 9.49219 12.3413 9.53613C12.4634 9.60205 12.6294 9.67773 12.8345 9.76563L12.2412 10.9009C11.9434 10.7642 11.6455 10.6006 11.3525 10.4126C11.0596 10.2222 10.8545 10.0806 10.7373 9.98779C10.2637 10.1807 9.67041 10.2783 8.95752 10.2783C7.90283 10.2783 7.07031 10.0195 6.4624 9.49951C5.74219 8.88672 5.3833 8.02246 5.3833 6.91162C5.3833 5.83252 5.69824 4.99268 6.32813 4.39453C6.95801 3.79639 7.83691 3.49854 8.96729 3.49854C10.1196 3.49854 11.0059 3.78906 11.6333 4.375C12.2607 4.9585 12.5732 5.7959 12.5732 6.88232C12.5732 7.84668 12.3218 8.62061 11.8188 9.2041ZM10.1758 8.16406C10.3467 7.87598 10.4321 7.44385 10.4321 6.86768C10.4321 6.20605 10.3003 5.73486 10.0415 5.45166C9.78027 5.16846 9.42139 5.02686 8.9624 5.02686C8.53516 5.02686 8.18848 5.1709 7.9248 5.46143C7.65869 5.74951 7.52686 6.20117 7.52686 6.81641C7.52686 7.53174 7.65625 8.03467 7.91504 8.32275C8.17383 8.61084 8.53027 8.75732 8.98193 8.75732C9.12842 8.75732 9.26514 8.74268 9.39453 8.71826C9.21387 8.55225 8.93066 8.39844 8.54004 8.25195L8.87695 7.52441C9.06738 7.55615 9.21631 7.59766 9.32129 7.64404C9.42871 7.69043 9.63379 7.81738 9.94385 8.02002C10.0122 8.06396 10.0903 8.11279 10.1758 8.16406ZM30 7.84912V14.6851C30 15.3052 29.8877 15.8887 29.6655 16.4307C29.4409 16.9727 29.1162 17.4634 28.667 17.9004C28.479 18.0884 28.2715 18.2617 28.0664 18.4082C27.8516 18.562 27.627 18.6914 27.4048 18.8037C27.395 18.8135 27.3779 18.8135 27.3706 18.8208C27.0776 18.9575 26.7773 19.0527 26.4673 19.1211C26.1401 19.1895 25.8057 19.2236 25.4614 19.2236H22.1655C22.2095 19.3604 22.251 19.4995 22.3022 19.6362C22.4316 20.0146 22.5854 20.3931 22.749 20.7617V20.7715C22.8955 21.1157 23.1006 21.4429 23.3521 21.77C23.6108 22.1045 23.9185 22.4316 24.2896 22.7686C24.5557 23.0005 24.5825 23.4058 24.3408 23.6719C24.1772 23.8599 23.9282 23.9307 23.7036 23.8696C22.9126 23.6621 22.1558 23.4058 21.4502 23.0957C20.7446 22.7856 20.0757 22.4243 19.4458 22.0117C18.8257 21.6064 18.2422 21.1426 17.7002 20.6372C17.2437 20.2075 16.814 19.7339 16.4111 19.2358H14.1577C13.7354 19.2358 13.3228 19.1846 12.937 19.082C12.5513 18.9795 12.1802 18.8159 11.8286 18.6011C11.5283 18.4204 11.4331 18.0249 11.6138 17.7246C11.7944 17.4243 12.1899 17.3291 12.4902 17.5098C12.7319 17.6563 12.9883 17.7686 13.2715 17.8442C13.5474 17.9224 13.8477 17.9565 14.1577 17.9565H16.7285C16.9263 17.9565 17.1143 18.042 17.2437 18.2153C17.6489 18.7573 18.0957 19.2554 18.584 19.7119C19.0649 20.1685 19.5898 20.5811 20.1562 20.9497C20.6982 21.3013 21.2744 21.6211 21.8848 21.8945C21.7651 21.6968 21.6699 21.499 21.5747 21.3013C21.4038 20.9058 21.2402 20.5005 21.0938 20.0708C20.957 19.6655 20.8276 19.2456 20.7153 18.8232C20.6885 18.7549 20.6812 18.6768 20.6812 18.5986C20.6812 18.2471 20.9644 17.9541 21.3257 17.9541H25.4614C25.7202 17.9541 25.9595 17.9272 26.1914 17.876C26.416 17.8247 26.6211 17.7563 26.8188 17.6685C26.8286 17.6587 26.8359 17.6587 26.8457 17.6514C27.0093 17.5732 27.1729 17.4805 27.3193 17.3755C27.4731 17.2632 27.6196 17.1436 27.7588 16.9971C28.0762 16.6797 28.3179 16.3257 28.4717 15.9473C28.6255 15.5688 28.7036 15.1465 28.7036 14.6924V7.85645C28.7036 7.3999 28.6255 6.97998 28.4717 6.60156C28.3179 6.22315 28.0762 5.87158 27.7588 5.55176C27.4414 5.23438 27.0874 4.99268 26.709 4.83887C26.3306 4.68506 25.9082 4.60693 25.4541 4.60693H21.1353C20.7837 4.60693 20.4907 4.32373 20.4907 3.9624C20.4907 3.61084 20.7739 3.31787 21.1353 3.31787H25.4614C26.0815 3.31787 26.6577 3.43018 27.1973 3.65234C27.7393 3.87695 28.2202 4.20166 28.667 4.64111C29.1064 5.08057 29.4409 5.56885 29.6558 6.11084C29.8804 6.65283 29.9902 7.229 29.9902 7.84668H30V7.84912Z" fill="#E9322E"/>
</g>
<defs>
<clipPath id="clip0_435_634">
<rect width="30" height="23.8892" fill="white"/>
</clipPath>
</defs>
</svg>
