<svg width="30" height="30" viewBox="0 0 27 25" fill="none" xmlns="http://www.w3.org/2000/svg">
<g filter="url(#filter0_d_90_525)">
<path d="M15.8626 1.5625C13.6089 1.5625 11.4058 2.20397 9.53197 3.4058C7.65811 4.60763 6.1976 6.31583 5.33516 8.3144C4.47271 10.313 4.24706 12.5121 4.68673 14.6338C5.1264 16.7555 6.21165 18.7043 7.80524 20.234C9.39884 21.7636 11.4292 22.8053 13.6396 23.2273C15.85 23.6494 18.1411 23.4328 20.2232 22.6049C22.3053 21.7771 24.085 20.3752 25.337 18.5765C26.5891 16.7779 27.2574 14.6632 27.2574 12.5C27.2574 9.59919 26.0569 6.8172 23.9199 4.76602C21.783 2.71484 18.8847 1.5625 15.8626 1.5625Z" fill="#E9322E"/>
<path d="M20.203 13.5417H11.5213C11.2334 13.5417 10.9574 13.4319 10.7539 13.2366C10.5504 13.0412 10.436 12.7763 10.436 12.5C10.436 12.2237 10.5504 11.9588 10.7539 11.7634C10.9574 11.5681 11.2334 11.4583 11.5213 11.4583H20.203C20.4908 11.4583 20.7669 11.5681 20.9704 11.7634C21.1739 11.9588 21.2882 12.2237 21.2882 12.5C21.2882 12.7763 21.1739 13.0412 20.9704 13.2366C20.7669 13.4319 20.4908 13.5417 20.203 13.5417Z" fill="white"/>
</g>
<defs>
<filter id="filter0_d_90_525" x="-1.16016" y="0" width="34.0454" height="33" filterUnits="userSpaceOnUse" color-interpolation-filters="sRGB">
<feFlood flood-opacity="0" result="BackgroundImageFix"/>
<feColorMatrix in="SourceAlpha" type="matrix" values="0 0 0 0 0 0 0 0 0 0 0 0 0 0 0 0 0 0 127 0" result="hardAlpha"/>
<feOffset dy="4"/>
<feGaussianBlur stdDeviation="2"/>
<feComposite in2="hardAlpha" operator="out"/>
<feColorMatrix type="matrix" values="0 0 0 0 0 0 0 0 0 0 0 0 0 0 0 0 0 0 0.25 0"/>
<feBlend mode="normal" in2="BackgroundImageFix" result="effect1_dropShadow_90_525"/>
<feBlend mode="normal" in="SourceGraphic" in2="effect1_dropShadow_90_525" result="shape"/>
</filter>
</defs>
</svg>
