<svg width="85" height="86" viewBox="0 0 85 86" fill="none" xmlns="http://www.w3.org/2000/svg">
<g clip-path="url(#clip0_806_631)">
<path d="M33.9362 0.878524C35.4373 0.567244 36.9383 0.34589 38.4187 0.200627C39.9405 0.0553629 41.4484 -0.0138103 42.9357 2.43691e-05C43.7727 0.00694169 44.4436 0.691756 44.4367 1.52875C44.4298 2.17206 44.0217 2.71853 43.4545 2.93297C37.1251 5.4232 32.0616 10.0647 28.9558 15.813C25.8983 21.4645 24.7362 28.1812 26.1266 34.9602L26.1335 35.0086C27.7176 42.6591 32.2415 48.947 38.2941 52.9313C44.3399 56.9157 51.9005 58.5897 59.5511 57.0264L59.5995 57.0195C65.1057 55.8781 69.8994 53.2219 73.6416 49.5626C77.5153 45.7788 80.2546 40.9298 81.479 35.6173C81.6657 34.8011 82.482 34.2961 83.2913 34.4829C83.9069 34.6281 84.3496 35.1262 84.4465 35.7141C86.2727 46.9202 83.5126 57.898 77.4877 66.6415C71.4903 75.3434 62.2488 81.8388 51.0773 84.1354C39.5808 86.5011 28.2156 83.9832 19.1332 78.0066C10.0438 72.0093 3.24409 62.5672 0.878363 51.0706C-1.43202 39.8438 0.912949 28.7415 6.59207 19.7697C12.2989 10.7703 21.3605 3.90139 32.449 1.21056C32.6634 1.15522 32.9125 1.09988 33.1822 1.03762H33.1892L33.9362 0.878524Z" fill="#E9322E"/>
</g>
<defs>
<clipPath id="clip0_806_631">
<rect width="85" height="85.0069" fill="white"/>
</clipPath>
</defs>
</svg>
