<svg width="30" height="30" viewBox="0 0 30 30" fill="none" xmlns="http://www.w3.org/2000/svg">
<path d="M11.6062 22.8054H4.751C4.37613 22.8054 4.07227 23.1093 4.07227 23.4842C4.07227 23.859 4.37613 24.1629 4.751 24.1629H11.6062C11.9811 24.1629 12.2849 23.859 12.2849 23.4842C12.2849 23.1093 11.9811 22.8054 11.6062 22.8054Z" fill="#E9322E"/>
<path d="M21.8552 22.8054H15C14.6252 22.8054 14.3213 23.1093 14.3213 23.4842C14.3213 23.859 14.6252 24.1629 15 24.1629H21.8552C22.23 24.1629 22.534 23.859 22.534 23.4842C22.534 23.1093 22.23 22.8054 21.8552 22.8054Z" fill="#E9322E"/>
<path d="M21.8551 5.8371H4.751C4.37613 5.8371 4.07227 6.14097 4.07227 6.51583C4.07227 6.89069 4.37613 7.19456 4.751 7.19456H21.8551C22.2299 7.19456 22.5338 6.89069 22.5338 6.51583C22.5338 6.14097 22.2299 5.8371 21.8551 5.8371Z" fill="#E9322E"/>
<path d="M21.8552 9.23077H15C14.6252 9.23077 14.3213 9.53464 14.3213 9.90951C14.3213 10.2844 14.6252 10.5882 15 10.5882H21.8552C22.23 10.5882 22.534 10.2844 22.534 9.90951C22.534 9.53464 22.23 9.23077 21.8552 9.23077Z" fill="#E9322E"/>
<path d="M21.8552 12.6245H15C14.6252 12.6245 14.3213 12.9283 14.3213 13.3032C14.3213 13.678 14.6252 13.9819 15 13.9819H21.8552C22.23 13.9819 22.534 13.678 22.534 13.3032C22.534 12.9283 22.23 12.6245 21.8552 12.6245Z" fill="#E9322E"/>
<path d="M21.8552 16.0181H15C14.6252 16.0181 14.3213 16.322 14.3213 16.6968C14.3213 17.0717 14.6252 17.3756 15 17.3756H21.8552C22.23 17.3756 22.534 17.0717 22.534 16.6968C22.534 16.322 22.23 16.0181 21.8552 16.0181Z" fill="#E9322E"/>
<path d="M21.8552 19.4118H15C14.6252 19.4118 14.3213 19.7156 14.3213 20.0905C14.3213 20.4654 14.6252 20.7692 15 20.7692H21.8552C22.23 20.7692 22.534 20.4654 22.534 20.0905C22.534 19.7156 22.23 19.4118 21.8552 19.4118Z" fill="#E9322E"/>
<path d="M11.6062 19.4118H4.751C4.37613 19.4118 4.07227 19.7156 4.07227 20.0905C4.07227 20.4654 4.37613 20.7692 4.751 20.7692H11.6062C11.9811 20.7692 12.2849 20.4654 12.2849 20.0905C12.2849 19.7156 11.9811 19.4118 11.6062 19.4118Z" fill="#E9322E"/>
<path d="M11.6062 9.23077H4.751C4.37613 9.23077 4.07227 9.53464 4.07227 9.90951V16.7647C4.07227 17.1396 4.37613 17.4434 4.751 17.4434H11.6062C11.9811 17.4434 12.2849 17.1396 12.2849 16.7647V9.90951C12.2849 9.53464 11.9811 9.23077 11.6062 9.23077ZM10.9275 16.086H5.42973V10.5882H10.9275V16.086Z" fill="#E9322E"/>
<path d="M28.6425 5.15837H26.6063V3.12218C26.6063 2.37367 25.9974 1.76471 25.2489 1.76471H1.35747C0.608959 1.76471 0 2.37367 0 3.12218V24.8416C0 26.7129 1.5224 28.2353 3.39367 28.2353H26.6063C28.4776 28.2353 30 26.7129 30 24.8416V6.51584C30 5.76733 29.391 5.15837 28.6425 5.15837ZM28.6425 24.8416C28.6425 25.9644 27.7291 26.8778 26.6063 26.8778H3.39367C2.27091 26.8778 1.35747 25.9644 1.35747 24.8416V3.12218H25.2489V23.8235C25.2489 24.7592 26.0101 25.5204 26.9457 25.5204C27.3205 25.5204 27.6244 25.2165 27.6244 24.8416C27.6244 24.4668 27.3205 24.1629 26.9457 24.1629C26.7586 24.1629 26.6063 24.0107 26.6063 23.8235V6.51584H28.6425V24.8416Z" fill="#E9322E"/>
</svg>
