<svg width="42" height="64" viewBox="0 0 42 64" fill="none" xmlns="http://www.w3.org/2000/svg">
<path d="M0.229015 10.1324C0.280712 9.46239 0.691238 8.84828 1.28256 8.39747C4.06195 6.27782 6.74689 4.04306 9.34962 1.71423C10.0046 0.653525 11.5334 0.0681946 12.6986 1.19976C21.9975 10.2261 30.1383 20.3989 40.342 28.4928C40.6216 28.7143 40.8101 28.958 40.9274 29.2093C41.5114 29.9671 41.6587 31.062 40.8182 31.9582C31.3014 42.1055 22.4566 52.851 12.6988 62.7806C12.0376 63.454 11.2487 63.5355 10.5728 63.2831C10.184 63.2343 9.79164 63.0811 9.42717 62.7806C6.53751 60.3901 3.75963 57.8768 1.08651 55.2513C-0.0632744 54.1216 0.506325 52.632 1.56606 51.9749C7.15536 45.4101 13.5364 38.9085 19.1182 32.3374C12.7866 26.0577 6.6842 18.9435 0.609577 12.4298C-0.0718002 11.6985 -0.0976486 10.8375 0.229015 10.1324ZM22.9456 30.1395C23.2695 30.4532 23.4483 30.7961 23.5297 31.1404C24.0502 31.8975 24.1723 32.9523 23.4224 33.8394C17.7831 40.5085 11.3267 47.0921 5.65637 53.7342C7.3675 55.363 9.13308 56.934 10.9308 58.4718C19.664 49.4523 27.7246 39.8317 36.2491 30.6238C27.1048 23.1396 19.5649 14.0397 11.2242 5.72969C9.18491 7.50644 7.09391 9.21723 4.95987 10.8809C10.755 17.2712 16.731 24.1263 22.9456 30.1395Z" fill="#E9322E"/>
</svg>
