<svg width="42" height="64" viewBox="0 0 42 64" fill="none" xmlns="http://www.w3.org/2000/svg">
<path d="M41.771 10.1324C41.7194 9.46239 41.3088 8.84828 40.7175 8.39747C37.9381 6.27782 35.2532 4.04306 32.6504 1.71423C31.9955 0.653525 30.4666 0.0681946 29.3014 1.19976C20.0025 10.2261 11.8618 20.3989 1.65806 28.4928C1.37842 28.7143 1.18993 28.958 1.07265 29.2093C0.488615 29.9671 0.341369 31.062 1.18181 31.9582C10.6987 42.1055 19.5435 52.851 29.3013 62.7806C29.9625 63.454 30.7514 63.5355 31.4272 63.2831C31.816 63.2343 32.2084 63.0812 32.5729 62.7806C35.4626 60.3902 38.2404 57.8768 40.9136 55.2513C42.0633 54.1216 41.4937 52.632 40.434 51.9749C34.8447 45.4101 28.4636 38.9085 22.8819 32.3374C29.2135 26.0577 35.3159 18.9435 41.3905 12.4298C42.0719 11.6985 42.0977 10.8375 41.771 10.1324ZM19.0544 30.1395C18.7305 30.4532 18.5518 30.7961 18.4704 31.1404C17.9499 31.8975 17.8278 32.9523 18.5776 33.8394C24.217 40.5085 30.6734 47.0921 36.3437 53.7342C34.6326 55.363 32.867 56.934 31.0692 58.4718C22.3361 49.4523 14.2755 39.8317 5.75098 30.6238C14.8952 23.1396 22.4352 14.0397 30.7758 5.72969C32.8151 7.50644 34.9062 9.21723 37.0402 10.8809C31.2451 17.2712 25.269 24.1263 19.0544 30.1395Z" fill="#E9322E"/>
</svg>
