<svg width="30" height="30" viewBox="0 0 40 41" fill="none" xmlns="http://www.w3.org/2000/svg">
<path d="M15.2978 0.953803C10.2563 1.27261 5.57112 3.97931 2.75815 8.2019C0.589034 11.4618 -0.339247 15.3062 0.110829 19.2038C0.689051 24.2265 3.61454 28.7616 7.95278 31.3527C10.0688 32.6185 12.2066 33.328 14.7664 33.6124C15.254 33.6687 17.0043 33.6874 17.5638 33.6468C20.283 33.4374 22.9678 32.556 25.14 31.1526L25.3557 31.012L30.094 35.7472C32.7007 38.3507 34.8823 40.5073 34.9417 40.5417C35.1042 40.6261 35.5449 40.6199 35.8325 40.523C36.145 40.4198 36.6045 40.176 36.8826 39.9666C37.2671 39.676 37.5234 39.4322 38.4235 38.5008C39.3174 37.5819 39.5393 37.3037 39.7706 36.813C40.0019 36.3285 40.0644 35.8222 39.93 35.5503C39.8988 35.4909 37.7547 33.3186 35.1042 30.6682C30.4816 26.0424 30.3347 25.8893 30.3753 25.8236C31.1942 24.5109 31.9287 22.7262 32.3131 21.1103C32.7851 19.1225 32.8789 16.944 32.5788 14.8749C32.0162 10.9899 29.9534 7.308 26.9091 4.75757C23.6554 2.03211 19.5485 0.685008 15.2978 0.953803ZM17.1418 6.38909C20.5768 6.64539 23.596 8.40506 25.4964 11.2649C26.4653 12.7214 27.0341 14.2904 27.2592 16.1407C27.3123 16.5783 27.3123 18.0223 27.256 18.4693C27.031 20.3352 26.4309 21.9667 25.4182 23.4545C24.0836 25.4111 22.1427 26.8988 19.9392 27.6489C18.7859 28.0396 17.8451 28.2053 16.5949 28.2272C15.7478 28.2428 15.2196 28.2053 14.4945 28.0803C9.60305 27.227 5.88368 23.1607 5.46486 18.2098C5.41797 17.6504 5.4461 16.3908 5.51486 15.8907C5.68677 14.6467 5.99932 13.6122 6.54629 12.4995C7.11826 11.3306 7.784 10.4054 8.71853 9.48649C10.9252 7.31112 14.0538 6.16093 17.1418 6.38909Z" fill="#E9322E"/>
</svg>
