<svg width="96" height="93" viewBox="0 0 86 83" fill="none" xmlns="http://www.w3.org/2000/svg">
<path d="M85.9805 43.2073C85.8677 37.483 84.6274 31.7673 82.329 26.5459C80.0393 21.3159 76.7174 16.589 72.6409 12.6773C68.5645 8.76568 63.7335 5.66932 58.5035 3.62242C53.2735 1.57552 47.6618 0.595439 42.1023 0.708191C36.5514 0.820944 31.0178 2.02653 25.9699 4.25557C20.9134 6.47593 16.3252 9.69373 12.5437 13.6401C8.75344 17.5864 5.76115 22.27 3.79232 27.3265C1.8148 32.3831 0.869415 37.8212 0.990841 43.1987C1.10359 48.5761 2.27449 53.9189 4.42547 58.8106C6.57644 63.7023 9.69016 68.1344 13.5151 71.7945C17.34 75.4547 21.8675 78.3515 26.7592 80.251C31.6509 82.1591 36.907 83.0698 42.1109 82.9484C47.3149 82.8356 52.4755 81.6994 57.1938 79.6178C61.9207 77.5362 66.1967 74.5179 69.7354 70.8231C73.2741 67.1283 76.0582 62.7483 77.897 58.0213C79.0158 55.1591 79.7704 52.1582 80.1694 49.1312C80.2734 49.1399 80.3862 49.1399 80.4903 49.1399C83.5173 49.1399 85.9718 46.6853 85.9718 43.6584C85.9718 43.5022 85.9631 43.3548 85.9545 43.1987L85.9805 43.2073ZM77.2638 57.7698C75.2516 62.332 72.3374 66.4605 68.764 69.8691C65.1906 73.2777 60.9667 75.9664 56.4045 77.7357C51.8424 79.5051 46.9593 80.3464 42.1109 80.225C37.2626 80.1122 32.4662 79.0454 28.0775 77.1026C23.6889 75.1598 19.7078 72.3496 16.4293 68.9063C13.1421 65.463 10.5575 61.3866 8.86619 56.9892C7.15755 52.5832 6.35961 47.8822 6.47236 43.2073C6.58512 38.5324 7.61724 33.9182 9.49067 29.6943C11.3641 25.4705 14.0702 21.6455 17.392 18.4884C20.7139 15.3314 24.6342 12.8421 28.8581 11.2202C33.082 9.58965 37.6095 8.81772 42.1023 8.93915C46.6037 9.0519 51.0358 10.0493 55.0862 11.8534C59.1453 13.6574 62.8228 16.2681 65.8498 19.4599C68.8854 22.6516 71.2619 26.4245 72.8231 30.4836C74.3843 34.5427 75.1215 38.888 75.0001 43.2073H75.0174C75.0087 43.3548 75.0001 43.5109 75.0001 43.667C75.0001 46.4945 77.1424 48.819 79.8918 49.1139C79.3714 52.0975 78.4867 55.0117 77.2638 57.7698Z" fill="#E9322E"/>
</svg>
