<svg width="85" height="85" viewBox="0 0 85 85" fill="none" xmlns="http://www.w3.org/2000/svg">
<path d="M24.5903 42.6021C24.5903 52.7086 32.7843 60.8941 42.8823 60.8941C52.9888 60.8941 61.1743 52.7001 61.1743 42.6021C61.1743 32.4956 52.9803 24.3101 42.8823 24.3101C32.7843 24.3101 24.5903 32.5041 24.5903 42.6021Z" fill="#E9322E"/>
<path d="M42.3979 15.113C40.9189 15.113 39.7119 13.906 39.7119 12.427V4.15646C39.7119 2.67746 40.9189 1.47046 42.3979 1.47046C43.8769 1.47046 45.0839 2.67746 45.0839 4.15646V12.427C45.0839 13.906 43.8769 15.113 42.3979 15.113Z" fill="#E9322E"/>
<path d="M42.8823 83.5295C41.4033 83.5295 40.1963 82.3225 40.1963 80.8435V72.573C40.1963 71.094 41.4033 69.887 42.8823 69.887C44.3613 69.887 45.5683 71.094 45.5683 72.573V80.8435C45.5768 82.3225 44.3613 83.5295 42.8823 83.5295Z" fill="#E9322E"/>
<path d="M13.2852 71.7144C12.2652 70.6519 12.2992 68.9349 13.3617 67.9149L19.3287 62.1944C20.3912 61.1744 22.1082 61.2084 23.1282 62.2709C24.1482 63.3334 24.1142 65.0504 23.0517 66.0704L17.0847 71.7994C16.0222 72.8194 14.3137 72.7854 13.2852 71.7144Z" fill="#E9322E"/>
<path d="M61.9224 22.7291C60.9024 21.6666 60.9364 19.9496 61.9989 18.9296L67.9659 13.2091C69.0284 12.1891 70.7454 12.2231 71.7654 13.2856C72.7854 14.3481 72.7514 16.0651 71.6889 17.0851L65.7219 22.8056C64.6594 23.8256 62.9509 23.7916 61.9224 22.7291Z" fill="#E9322E"/>
<path d="M70.5072 42.2534C70.5412 40.7744 71.7737 39.5929 73.2527 39.6269L81.5232 39.7969C83.0022 39.8309 84.1837 41.0634 84.1497 42.5424C84.1157 44.0214 82.8832 45.2029 81.4042 45.1689L73.1337 44.9989C71.6632 44.9649 70.4817 43.7324 70.5072 42.2534Z" fill="#E9322E"/>
<path d="M0.849832 42.2534C0.883832 40.7744 2.11633 39.5929 3.59533 39.6269L11.8658 39.7969C13.3448 39.8309 14.5263 41.0634 14.4923 42.5424C14.4583 44.0214 13.2258 45.2029 11.7468 45.1689L3.47633 44.9989C2.00583 44.9649 0.815832 43.7324 0.849832 42.2534Z" fill="#E9322E"/>
<path d="M12.9368 13.5234C13.9058 12.4099 15.6143 12.2909 16.7278 13.2684L22.9583 18.6999C24.0718 19.6689 24.1908 21.3774 23.2133 22.4909C22.2443 23.6044 20.5358 23.7234 19.4223 22.7459L13.1918 17.3144C12.0868 16.3369 11.9678 14.6369 12.9368 13.5234Z" fill="#E9322E"/>
<path d="M61.7098 62.509C62.6788 61.3955 64.3873 61.2765 65.5008 62.254L71.7313 67.6854C72.8448 68.6544 72.9638 70.363 71.9863 71.4765C71.0173 72.59 69.3088 72.709 68.1953 71.7315L61.9648 66.2999C60.8513 65.3309 60.7323 63.6225 61.7098 62.509Z" fill="#E9322E"/>
</svg>
