<svg width="33" height="33" viewBox="0 0 33 33" fill="none" xmlns="http://www.w3.org/2000/svg">
<g clip-path="url(#clip0_39_352)">
<path d="M32.261 25.1062C31.8978 25.5176 30.9271 25.6076 30.9271 25.6076H25.7521C25.7521 25.6076 25.0289 25.778 23.7496 24.4376C22.8689 23.5183 21.9657 22.1619 21.2457 21.5994C20.815 21.2619 20.41 21.4322 20.41 21.4322C20.41 21.4322 19.6546 21.4676 19.5742 22.268C19.4328 23.6694 19.24 24.4376 19.24 24.4376C19.24 24.4376 19.1467 25.029 18.9057 25.2733C18.6485 25.5305 18.2371 25.6076 18.2371 25.6076C18.2371 25.6076 11.095 27.218 5.55031 18.2597C1.54853 11.799 1.04388 9.91547 1.04388 9.91547C1.04388 9.91547 0.70317 9.45904 1.04388 8.91261C1.40067 8.33726 1.8796 8.41118 1.8796 8.41118H6.55317C6.55317 8.41118 7.07067 8.46583 7.38889 8.74547C7.73603 9.05083 7.89031 9.58118 7.89031 9.58118C7.89031 9.58118 8.91567 12.0594 10.06 13.9205C11.6446 16.4951 12.3967 16.2573 12.3967 16.2573C12.3967 16.2573 13.7628 15.878 12.8982 10.0794C12.7792 9.27904 11.23 9.07654 11.23 9.07654C11.23 9.07654 11.2171 8.38547 11.5642 8.07368C11.9628 7.72011 12.4 7.7394 12.4 7.7394C12.4 7.7394 13.0942 7.61726 15.5725 7.57226C16.826 7.54976 17.7421 7.57226 17.7421 7.57226C17.7421 7.57226 18.3528 7.55297 19.076 8.07368C19.4264 8.3244 19.4103 8.9094 19.4103 8.9094C19.4103 8.9094 19.2625 13.0912 19.4103 15.2544C19.4746 16.1833 19.9117 16.2573 19.9117 16.2573C19.9117 16.2573 20.381 16.6205 22.2485 13.9205C23.4314 12.2105 24.4182 9.74833 24.4182 9.74833C24.4182 9.74833 24.6625 9.0444 24.9196 8.74547C25.1639 8.4594 25.5882 8.41118 25.5882 8.41118H31.5989C31.5989 8.41118 31.9685 8.39833 32.1003 8.74547C32.2192 9.06368 32.1003 9.74833 32.1003 9.74833C32.1003 9.74833 32.036 10.5037 31.4317 11.4165C30.0046 13.5733 27.2532 17.093 27.2532 17.093C27.2532 17.093 27.0475 17.5719 27.086 17.9287C27.131 18.3208 27.4203 18.5972 27.4203 18.5972C27.4203 18.5972 29.4935 20.4744 30.9271 22.104C31.7017 22.9847 32.261 24.1065 32.261 24.1065C32.261 24.1065 32.5567 24.7719 32.261 25.1062Z" fill="white"/>
</g>
<defs>
<clipPath id="clip0_39_352">
<rect x="0.571411" y="0.571533" width="32.1429" height="32.1429" rx="5" fill="white"/>
</clipPath>
</defs>
</svg>
