<svg width="120" height="120" viewBox="0 0 120 120" fill="none" xmlns="http://www.w3.org/2000/svg">
<g clip-path="url(#clip0_809_631)">
<path d="M104.752 61.0772C106.922 60.9572 109.083 61.3989 111.001 62.3573C112.961 63.3361 115.236 63.2377 117.087 62.0931C118.911 60.9656 120 59.0083 120 56.8581V29.3441C120 28.0241 118.93 26.9537 117.61 26.9537H90.0955C89.4262 26.9537 89.0758 26.5487 88.9266 26.3073C88.7982 26.1 88.5367 25.545 88.8726 24.8725C90.2021 22.212 90.8165 19.2201 90.6494 16.2209C90.1625 7.47432 82.9207 0.355402 74.1626 0.01381C69.4313 -0.172404 64.9574 1.52982 61.5553 4.80207C58.1513 8.07552 56.2768 12.4787 56.2768 17.2002C56.2768 19.9064 56.8885 22.4974 58.0956 24.9017C58.4219 25.5514 58.1652 26.0943 58.0399 26.2977C57.8886 26.5427 57.5344 26.9537 56.8598 26.9537H29.3443C28.0243 26.9537 26.9539 28.0241 26.9539 29.3441V56.8579C26.9539 57.5272 26.549 57.8774 26.3073 58.0268C26.1003 58.1551 25.5452 58.4164 24.8728 58.0808C22.2125 56.7517 19.2223 56.1364 16.2216 56.3038C7.47507 56.7907 0.355907 64.0322 0.0140761 72.79C-0.170465 77.5176 1.52984 81.9953 4.8021 85.3978C8.07578 88.8018 12.4789 90.6766 17.2007 90.6766C19.9069 90.6766 22.4979 90.0649 24.9022 88.8577C25.5529 88.5315 26.095 88.7884 26.2982 88.9134C26.5432 89.0648 26.9542 89.419 26.9542 90.0936V117.61C26.9542 118.93 28.0246 120 29.3446 120H56.8584C59.0088 120 60.9656 118.911 62.0934 117.087C63.2379 115.236 63.3366 112.961 62.3575 111.001C61.3997 109.083 60.9567 106.922 61.0775 104.752C61.4288 98.44 66.6562 93.3025 72.9772 93.056C76.3905 92.9234 79.6281 94.1501 82.0845 96.5131C84.5423 98.8767 85.896 102.056 85.896 105.465C85.896 107.42 85.4552 109.29 84.5856 111.022C83.6096 112.965 83.7066 115.227 84.845 117.073C85.9754 118.905 87.9377 119.999 90.0939 119.999H117.61C118.93 119.999 120 118.929 120 117.609V90.0936C120 87.9374 118.906 85.9751 117.073 84.8447C115.228 83.7064 112.966 83.6096 111.022 84.5851C109.29 85.4547 107.42 85.8958 105.465 85.8958C102.056 85.8958 98.877 84.5421 96.5131 82.084C94.1504 79.6274 92.9227 76.3929 93.0561 72.9765C93.303 66.6555 98.4405 61.4286 104.752 61.0772ZM93.0673 85.3981C96.341 88.8018 100.744 90.6766 105.466 90.6766C108.172 90.6766 110.763 90.0649 113.168 88.8577C113.817 88.5312 114.36 88.7882 114.563 88.9134C114.808 89.0648 115.219 89.419 115.219 90.0936V115.219H90.0941C89.4193 115.219 89.0653 114.808 88.9139 114.563C88.7887 114.359 88.5324 113.817 88.8585 113.167C90.0652 110.762 90.6771 108.171 90.6771 105.465C90.6771 100.744 88.8026 96.3405 85.3986 93.067C82.1634 89.9552 77.9562 88.2652 73.4859 88.2652C73.2552 88.2652 73.0231 88.2697 72.791 88.2783C64.0332 88.6199 56.7912 95.7388 56.304 104.485C56.1372 107.485 56.7517 110.477 58.0811 113.137C58.4169 113.81 58.1552 114.365 58.027 114.572C57.8776 114.813 57.5274 115.218 56.8581 115.218H31.7345V90.0931C31.7345 87.937 30.6404 85.9747 28.8079 84.8442C26.9628 83.7061 24.7007 83.6091 22.757 84.5846C21.0245 85.4543 19.1552 85.8953 17.2005 85.8953C13.7913 85.8953 10.6118 84.5416 8.24765 82.0835C5.8852 79.6266 4.65747 76.3924 4.7911 72.976C5.03803 66.655 10.1755 61.4281 16.4872 61.0767C18.6565 60.9567 20.8184 61.3985 22.736 62.3568C24.6952 63.3354 26.9702 63.2372 28.8216 62.0929C30.6459 60.9651 31.735 59.008 31.735 56.8576V31.734H56.86C59.0162 31.734 60.9785 30.6399 62.1089 28.8074C63.2472 26.9625 63.3443 24.7002 62.3685 22.7565C61.4989 21.024 61.0579 19.1547 61.0579 17.2C61.0579 13.7908 62.4116 10.6115 64.8694 8.24762C67.326 5.88517 70.56 4.65601 73.9767 4.79059C80.2979 5.03705 85.5248 10.1745 85.8762 16.4862C85.9971 18.657 85.5547 20.8177 84.5964 22.7357C83.6172 24.6952 83.716 26.9701 84.8605 28.8213C85.9881 30.6454 87.9453 31.7345 90.0955 31.7345H115.219V56.8579C115.219 57.5272 114.814 57.8776 114.573 58.0268C114.365 58.1551 113.81 58.4164 113.138 58.0808C110.478 56.7517 107.488 56.1364 104.487 56.3038C95.7403 56.7907 88.6211 64.0322 88.2793 72.7903C88.0945 77.5178 89.7953 81.9956 93.0673 85.3981Z" fill="#E9322E"/>
<path d="M47.7083 35.8394H38.2303C36.9103 35.8394 35.8398 36.9098 35.8398 38.2298C35.8398 39.5498 36.9103 40.6202 38.2303 40.6202H47.7083C49.0283 40.6202 50.0987 39.5498 50.0987 38.2298C50.0987 36.9098 49.0283 35.8394 47.7083 35.8394Z" fill="#E9322E"/>
<path d="M59.2596 35.8394H56.594C55.274 35.8394 54.2036 36.9098 54.2036 38.2298C54.2036 39.5498 55.274 40.6202 56.594 40.6202H59.2596C60.5796 40.6202 61.65 39.5498 61.65 38.2298C61.65 36.9098 60.5796 35.8394 59.2596 35.8394Z" fill="#E9322E"/>
</g>
<defs>
<clipPath id="clip0_809_631">
<rect width="120" height="120" fill="white"/>
</clipPath>
</defs>
</svg>
