<svg width="120" height="122" viewBox="0 0 120 122" fill="none" xmlns="http://www.w3.org/2000/svg">
<g clip-path="url(#clip0_1_3)">
<path fill-rule="evenodd" clip-rule="evenodd" d="M52.871 0C67.4741 0 80.6869 5.91619 90.2514 15.4807C99.8159 25.0452 105.732 38.2679 105.732 52.8611C105.732 63.5399 102.567 73.4791 97.1142 81.8012L119.99 106.738L104.214 121.164L82.1561 96.8874C73.487 102.675 63.2943 105.756 52.871 105.742C38.2679 105.742 25.0551 99.8258 15.4906 90.2613C5.91619 80.6771 0 67.4643 0 52.871C0 38.2679 5.91619 25.0551 15.4807 15.4807C25.0551 5.91619 38.2679 0 52.871 0ZM60.7691 38.3665C61.2033 37.9236 61.7211 37.5714 62.2925 37.3304C62.864 37.0894 63.4776 36.9643 64.0978 36.9625C64.7179 36.9606 65.3323 37.0821 65.9052 37.3197C66.478 37.5573 66.9979 37.9065 67.4347 38.3468C68.3212 39.2421 68.8201 40.4501 68.8238 41.71C68.8275 42.97 68.3357 44.1809 67.4544 45.0814L59.3985 53.2555L67.4643 61.4396C69.2884 63.2934 69.2588 66.2909 67.415 68.1348C65.5612 69.9786 62.5834 69.9786 60.7691 68.1249L52.7527 60L44.7264 68.1446C44.2922 68.5875 43.7744 68.9397 43.203 69.1807C42.6315 69.4217 42.0179 69.5468 41.3977 69.5486C40.7775 69.5505 40.1632 69.429 39.5903 69.1914C39.0175 68.9538 38.4976 68.6046 38.0608 68.1643C37.1743 67.269 36.6753 66.061 36.6717 64.8011C36.668 63.5411 37.1598 62.3302 38.0411 61.4297L46.097 53.2457L38.0312 45.0616C36.2071 43.2079 36.2366 40.2104 38.0904 38.3665C39.9441 36.5226 42.9219 36.5226 44.7362 38.3763L52.7527 46.5012L60.7691 38.3665V38.3665ZM86.0805 19.6516C77.5809 11.152 65.8373 5.89647 52.871 5.89647C39.9047 5.89647 28.1611 11.152 19.6615 19.6516C11.152 28.1512 5.89647 39.8948 5.89647 52.871C5.89647 65.8373 11.152 77.5809 19.6516 86.0805C28.1512 94.5801 39.8948 99.8357 52.8611 99.8357C65.8373 99.8357 77.5711 94.5801 86.0707 86.0805C94.5703 77.5809 99.8258 65.8373 99.8258 52.871C99.8357 39.8948 94.5801 28.1512 86.0805 19.6516Z" fill="#E9322E"/>
</g>
<defs>
<clipPath id="clip0_1_3">
<rect width="120" height="121.164" fill="white"/>
</clipPath>
</defs>
</svg>
