<svg width="200" height="200" viewBox="0 0 200 200" fill="none" xmlns="http://www.w3.org/2000/svg">
<path d="M150 100C122.5 100 100 122.5 100 150C100 177.5 122.5 200 150 200C177.5 200 200 177.5 200 150C200 122.5 177.5 100 150 100ZM173.125 141.875L148.125 166.875C146.875 168.125 145.625 168.75 143.75 168.75C141.875 168.75 140.625 168.125 139.375 166.875L126.875 154.375C124.375 151.875 124.375 148.125 126.875 145.625C129.375 143.125 133.125 143.125 135.625 145.625L143.75 153.75L164.375 133.125C166.875 130.625 170.625 130.625 173.125 133.125C175.625 135.625 175.625 139.375 173.125 141.875Z" fill="#E9322E"/>
<path d="M156.25 25H43.75C29.375 25 17.5 34.375 13.75 47.5L100 105L186.25 47.5C182.5 34.375 170.625 25 156.25 25Z" fill="#E9322E"/>
<path d="M148.75 87.5C149.375 87.5 149.375 87.5 150 87.5C164.375 87.5 176.875 92.5 187.5 100V61.875L148.75 87.5Z" fill="#E9322E"/>
<path d="M96.25 117.5L12.5 61.875V143.75C12.5 161.25 26.25 175 43.75 175H92.5C89.375 167.5 87.5 158.75 87.5 150C87.5 138.125 90.625 126.875 96.25 117.5C96.25 117.5 96.875 117.5 96.25 117.5Z" fill="#E9322E"/>
</svg>
