<svg width="29" height="28" viewBox="0 0 29 28" fill="none" xmlns="http://www.w3.org/2000/svg">
<path fill-rule="evenodd" clip-rule="evenodd" d="M28.0833 14.0417C28.0833 6.69909 21.929 0.75 14.3333 0.75C6.73749 0.75 0.583252 6.69909 0.583252 14.0417C0.583252 21.3842 6.73749 27.3333 14.3333 27.3333C21.929 27.3333 28.0833 21.3842 28.0833 14.0417ZM28.0833 14.0417C28.0833 6.70088 21.9272 0.75 14.3333 0.75C6.73934 0.75 0.583252 6.70088 0.583252 14.0417C0.583252 21.3825 6.73934 27.3333 14.3333 27.3333C21.9272 27.3333 28.0833 21.3825 28.0833 14.0417ZM16.9169 12.3266L12.7309 8.4463C12.1931 7.94787 12.182 7.11714 12.7088 6.60262L13.3186 6.01843C13.8343 5.51463 14.677 5.51463 15.1982 6.01843L22.5555 13.1359C23.0767 13.6343 23.0767 14.449 22.5555 14.9528L15.1982 22.0595C14.6825 22.5633 13.8398 22.5633 13.3186 22.0595L12.7088 21.4754C12.182 20.9662 12.1931 20.1355 12.7309 19.637L16.9169 15.7567H6.79293C6.05553 15.7567 5.46228 15.1832 5.46228 14.4704V13.6129C5.46228 12.9001 6.05553 12.3266 6.79293 12.3266H16.9169Z" fill="#E9322E"/>
</svg>
