<svg width="94" height="138" viewBox="0 0 94 138" fill="none" xmlns="http://www.w3.org/2000/svg">
<g clip-path="url(#clip0_39_121)">
<path d="M24.6585 98.227C24.9704 98.227 25.2823 98.227 25.2823 98.227C26.53 98.227 27.4658 97.323 27.4658 96.1178C27.4658 95.5152 27.1539 95.2139 26.8419 94.6112C24.0347 89.7903 23.0989 85.5719 24.0347 82.8602C24.3466 81.9562 24.9704 81.0523 25.5943 80.1484C27.4658 84.9693 29.9612 87.3798 33.7042 87.3798C37.4473 87.3798 40.8784 84.3667 43.0618 81.9562C47.7407 76.5326 48.9883 68.6986 48.9883 62.9737C51.4837 65.0829 53.0433 67.4933 53.6672 69.9038C53.9791 72.013 53.6672 73.5195 52.7314 75.3274C50.548 78.6418 49.6122 81.6549 50.5479 84.3667C51.1718 86.1746 52.1076 87.3798 53.6672 87.9824C54.6029 88.2837 55.5387 88.585 56.7864 88.585C59.5937 88.585 63.6486 87.0785 66.144 83.4628C67.7036 81.0523 68.9513 77.1353 68.0155 71.4104C69.5751 73.2182 70.5109 75.0261 70.8228 76.834C72.0705 83.4628 66.144 90.3929 63.6486 93.1047L63.3367 93.406C62.7129 94.0086 62.7129 94.9126 63.0248 95.8165C63.3367 96.7204 64.2725 97.0217 65.2082 97.0217C82.9877 96.7204 90.7858 72.6156 90.7858 63.5763C90.7858 46.7029 77.6851 28.0217 64.2725 25.9125C63.3367 25.6112 62.089 26.2139 61.7771 27.4191C61.4652 28.323 61.7771 29.5283 62.7129 30.1309C65.2082 31.9387 67.3917 38.5676 65.8321 43.9911C64.8963 47.0043 63.0248 48.8121 60.5294 49.1134C60.2175 49.1134 59.9056 49.1134 59.5937 49.1134C57.7221 49.1134 55.2268 48.8121 53.3552 46.7029C51.1718 44.5938 50.236 40.6767 50.5479 35.5545C50.8599 31.3361 52.1076 28.0217 53.3552 25.0086C55.8506 18.3798 58.346 12.3536 47.7407 -0.000117615C46.8049 -0.000117615 45.8691 -0.301428 44.9334 -0.000117615C43.9976 0.301192 43.3738 1.20512 43.3738 2.10905C43.3738 13.5588 40.8784 15.668 37.1353 18.9824C34.64 21.3929 31.5208 24.1047 28.4015 30.1309C24.6585 37.061 23.4108 48.2095 29.0254 60.8645C25.9062 59.9606 22.787 58.1527 21.2274 55.4409C18.4201 51.5239 18.4201 46.1003 20.9154 40.0741C21.2274 39.1702 20.9154 37.9649 20.2916 37.3623C19.3558 36.7597 18.4201 36.7597 17.4843 37.3623C6.56707 44.8951 1.26441 58.1527 3.44786 72.013C5.63131 84.9693 13.7413 94.9126 24.6585 98.227ZM14.3651 46.1003C14.0532 50.3187 14.9889 54.537 17.1724 57.8514C20.6035 62.6724 26.53 65.6855 32.7684 65.6855C33.7042 65.6855 34.328 65.3842 34.64 64.4802C34.9519 63.8776 34.9519 62.9737 34.64 62.3711C27.4658 49.716 28.7135 38.2663 32.1446 31.9387C34.9519 26.8165 37.4473 24.406 39.9426 22.2968C43.6857 18.9824 46.181 15.9693 47.1168 8.43656C51.7956 15.3667 50.236 18.9824 48.3645 24.1047C47.1168 27.4191 45.8691 31.0348 45.5572 35.8558C45.2453 42.1833 46.493 47.0043 49.6122 50.3187C52.7314 53.3318 56.4744 53.9344 59.2817 53.9344C59.5937 53.9344 59.9056 53.9344 60.5294 53.9344C65.2082 53.6331 68.6394 50.62 69.8871 45.799C70.8228 42.1833 70.8228 37.6636 69.5751 33.7466C77.997 38.8689 86.107 51.5239 86.107 64.4802C86.107 71.7117 80.8043 87.6811 70.8228 92.2008C73.6301 88.2837 76.4374 82.5588 75.1897 76.834C74.254 71.7117 70.5109 67.4933 64.2725 63.8776C63.9606 63.5763 63.6486 63.5763 63.0248 63.5763C62.401 63.5763 61.7771 63.8776 61.4652 64.1789C60.8413 64.7815 60.5294 65.9868 60.8413 66.8907C63.6486 73.2182 64.2725 78.3405 61.7771 81.6549C60.2175 83.7641 58.0341 84.9693 56.1625 84.9693C55.5387 84.9693 55.2268 84.9693 55.2268 84.668C54.9148 84.3667 54.6029 84.0654 54.291 83.7641C53.9791 82.5588 54.6029 80.4497 56.1625 78.3405C58.0341 75.6287 58.346 72.6156 57.7221 69.6025C56.4744 64.7815 52.7314 60.2619 46.493 56.6462C45.5572 56.0436 44.6214 56.3449 43.6857 56.9475C43.0618 57.5501 42.7499 58.7553 43.0618 59.6593C44.6214 63.275 44.3095 73.8208 39.3188 79.8471C37.1353 82.2575 34.9519 83.7641 33.3923 83.7641C30.8969 83.7641 29.6492 79.5457 29.0254 76.834C28.7135 76.2313 28.4016 75.6287 27.7777 75.3274C27.1539 75.0261 26.53 75.0261 25.9062 75.3274C22.787 76.834 20.6035 79.2444 19.6678 82.2575C18.732 85.2706 19.3558 88.8864 20.2916 91.8995C13.7413 87.6811 9.37436 80.4497 7.81476 71.7117C6.56707 61.7684 8.75052 52.7291 14.3651 46.1003Z" fill="#E9322E"/>
<path d="M0.952494 129.865L1.88826 133.179C2.82402 136.192 5.63131 138 8.75052 138C9.37436 138 9.9982 138 10.934 137.699L46.8049 127.454L82.9877 137.699C83.6116 138 84.2354 138 85.1712 138C88.2904 138 91.0977 135.891 92.0334 133.179L92.9692 129.865C94.2169 126.249 92.0334 122.332 88.2904 121.127L78.6208 118.415L88.2904 115.703C92.0334 114.498 94.2169 110.882 92.9692 106.965L92.0334 103.651C91.0977 100.637 88.2904 98.8296 85.1712 98.8296C84.5473 98.8296 83.9235 98.8296 82.9877 99.1309L46.8049 109.375L10.934 99.1309C10.3101 98.8296 9.68628 98.8296 8.75052 98.8296C5.63131 98.8296 2.82402 100.939 1.88826 103.651L0.952494 106.965C-0.295191 110.581 1.88826 114.498 5.63131 115.703L15.3009 118.415L5.63131 121.127C1.88826 122.332 -0.295191 126.249 0.952494 129.865ZM84.2354 103.349C85.4831 103.048 87.0427 103.651 87.3546 105.157L88.2904 108.472C88.6023 109.677 87.9785 111.183 86.4189 111.485L69.887 116.306L54.6029 111.786L84.2354 103.349ZM5.31939 108.17L6.25515 104.856C6.56707 103.952 7.50283 103.048 8.75052 103.048C9.06244 103.048 9.37436 103.048 9.37436 103.048L46.181 113.594L69.5751 120.223L86.7308 125.044C87.9785 125.345 88.9142 126.851 88.6023 128.057L87.6665 131.371C87.3546 132.576 85.795 133.48 84.5473 133.179L47.4287 122.934L45.8691 122.633L7.19091 111.485C5.63131 110.882 5.00747 109.677 5.31939 108.17ZM7.19091 125.345L23.7227 120.524L34.0161 123.537L39.0069 125.044L9.68628 133.48C9.37436 133.48 9.06244 133.48 9.06244 133.48C7.81476 133.48 6.87899 132.878 6.56707 131.672L5.63131 128.358C5.00747 127.153 5.63131 125.947 7.19091 125.345Z" fill="#E9322E"/>
</g>
<defs>
<clipPath id="clip0_39_121">
<rect x="0.640564" width="92.6406" height="138" rx="5" fill="white"/>
</clipPath>
</defs>
</svg>
