<svg width="33" height="33" viewBox="0 0 33 33" fill="none" xmlns="http://www.w3.org/2000/svg">
<g clip-path="url(#clip0_39_358)">
<path fill-rule="evenodd" clip-rule="evenodd" d="M16.3571 0.571533C7.47767 0.571533 0.285706 7.7635 0.285706 16.643C0.285706 23.7546 4.88615 29.7613 11.2745 31.8907C12.0781 32.0313 12.3795 31.5492 12.3795 31.1273C12.3795 30.7456 12.3594 29.48 12.3594 28.134C8.32142 28.8773 7.27678 27.1497 6.95535 26.2456C6.77454 25.7836 5.99106 24.3572 5.30803 23.9755C4.74553 23.6742 3.94196 22.9309 5.28794 22.9108C6.55356 22.8907 7.45758 24.076 7.75892 24.5581C9.20535 26.9889 11.5156 26.3059 12.4397 25.884C12.5803 24.8394 13.0022 24.1363 13.4643 23.7345C9.88838 23.3327 6.15178 21.9465 6.15178 15.7992C6.15178 14.0514 6.77454 12.605 7.7991 11.48C7.63838 11.0782 7.07588 9.43091 7.95981 7.22109C7.95981 7.22109 9.30579 6.79921 12.3795 8.86841C13.6652 8.5068 15.0312 8.326 16.3973 8.326C17.7634 8.326 19.1295 8.5068 20.4152 8.86841C23.4888 6.77912 24.8348 7.22109 24.8348 7.22109C25.7187 9.43091 25.1562 11.0782 24.9955 11.48C26.0201 12.605 26.6428 14.0314 26.6428 15.7992C26.6428 21.9666 22.8862 23.3327 19.3103 23.7345C19.8928 24.2367 20.3951 25.201 20.3951 26.7077C20.3951 28.8572 20.375 30.5849 20.375 31.1273C20.375 31.5492 20.6763 32.0514 21.4799 31.8907C27.8281 29.7613 32.4286 23.7345 32.4286 16.643C32.4286 7.7635 25.2366 0.571533 16.3571 0.571533Z" fill="black"/>
</g>
<defs>
<clipPath id="clip0_39_358">
<rect x="0.285706" y="0.571533" width="32.1429" height="32.1429" rx="5" fill="black"/>
</clipPath>
</defs>
</svg>