<svg width="32" height="32" viewBox="0 0 40 40" fill="none" xmlns="http://www.w3.org/2000/svg">
<g clip-path="url(#clip0_378_1236)">
<path fill-rule="evenodd" clip-rule="evenodd" d="M3.37503 0H36.6253C38.4818 0 40 1.51857 40 3.3747C40 5.23084 38.4818 6.74973 36.6253 6.74973H3.37503C1.51889 6.74973 0 5.23116 0 3.37503C0 1.51857 1.51889 0 3.37503 0ZM3.37503 26.9778H36.6253C38.4818 26.9778 40 28.4963 40 30.3525C40 32.2086 38.4818 33.7272 36.6253 33.7272H3.37503C1.51889 33.7272 0 32.2086 0 30.3525C0 28.4963 1.51889 26.9778 3.37503 26.9778ZM3.37503 13.489H36.6253C38.4818 13.489 40 15.0076 40 16.8637C40 18.7199 38.4818 20.2388 36.6253 20.2388H3.37503C1.51889 20.2388 0 18.7199 0 16.8637C0 15.0076 1.51889 13.489 3.37503 13.489Z" fill="#E9322E"/>
</g>
<defs>
<clipPath id="clip0_378_1236">
<rect width="40" height="33.7272" fill="white"/>
</clipPath>
</defs>
</svg>
