<svg width="30" height="30" viewBox="0 0 30 30" fill="none" xmlns="http://www.w3.org/2000/svg">
<path d="M0 15.003C0 15.574 0.462833 16.0368 1.03386 16.0368H20.7253L16.8844 19.8718C16.4817 20.2745 16.4817 20.9297 16.8844 21.3324C17.0827 21.5307 17.3472 21.6329 17.6117 21.6329C17.8762 21.6329 18.1407 21.5307 18.339 21.3324L23.9351 15.7363C24.3378 15.3336 24.3378 14.6784 23.9351 14.2757L18.339 8.67961C17.9363 8.27688 17.2811 8.27688 16.8784 8.67961C16.4757 9.08233 16.4757 9.73751 16.8784 10.1402L20.7133 13.9751H1.03386C0.462833 13.9751 0 14.432 0 15.003Z" fill="#E9322E"/>
<path d="M23.8274 29.7055C27.2355 29.7055 30.0005 26.9345 30.0005 23.5263V6.47365C30.0005 3.06551 27.2295 0.294525 23.8274 0.294525H6.77467C3.36654 0.294525 0.601562 3.06551 0.601562 6.47365V9.97796C0.601562 10.549 1.0644 11.0058 1.62941 11.0058C2.20044 11.0058 2.66327 10.543 2.66327 9.97796V6.47365C2.66327 4.20757 4.5086 2.35624 6.77467 2.35624H23.8274C26.0934 2.35624 27.9388 4.20156 27.9388 6.47365V23.5263C27.9388 25.7924 26.0934 27.6438 23.8274 27.6438H6.77467C4.5086 27.6438 2.66327 25.7984 2.66327 23.5263V20.0641C2.66327 19.4931 2.20044 19.0302 1.62941 19.0302C1.05838 19.0302 0.601562 19.4931 0.601562 20.0641V23.5263C0.601562 26.9345 3.37255 29.7055 6.77467 29.7055H23.8274V29.7055Z" fill="#E9322E"/>
</svg>
