<svg width="65" height="65" viewBox="0 0 65 65" fill="none" xmlns="http://www.w3.org/2000/svg">
<path d="M51.5003 45.7287C51.7408 45.7287 51.9363 45.9175 51.9363 46.1501C51.9363 46.3845 51.7408 46.5733 51.5003 46.5733C51.2603 46.5733 51.0648 46.3845 51.0648 46.1501C51.0648 45.9175 51.2603 45.7287 51.5003 45.7287Z" fill="#E9322E"/>
<path d="M47.4798 35.6053C47.7206 35.6053 47.9149 35.7941 47.9149 36.027C47.9149 36.2611 47.7206 36.4499 47.4798 36.4499C47.2392 36.4499 47.0446 36.2611 47.0446 36.027C47.0446 35.7941 47.2392 35.6053 47.4798 35.6053Z" fill="#E9322E"/>
<path d="M47.9074 33.0482C47.1708 33.0482 46.4727 33.3771 45.9947 33.9487C45.9774 33.9709 45.9559 33.993 45.9342 34.012L41.1801 38.5306C41.1542 38.5578 41.1283 38.5845 41.0987 38.6089C40.5391 39.0701 40.2202 39.7318 40.2202 40.4245C40.2202 41.7482 41.3297 42.824 42.6923 42.824C43.4398 42.824 44.1423 42.4893 44.6211 41.9057C44.6383 41.8824 44.6612 41.8579 44.6831 41.838L49.1791 37.5331C49.2208 37.4874 49.2641 37.4498 49.318 37.4151C49.9828 36.9658 50.383 36.2297 50.383 35.4464C50.3807 34.1233 49.2717 33.0482 47.9074 33.0482ZM43.4595 40.8485C42.8413 40.8485 42.3398 40.3611 42.3398 39.7629C42.3398 39.1648 42.8429 38.6774 43.4595 38.6774C44.076 38.6774 44.5791 39.1648 44.5791 39.7629C44.5791 40.3611 44.0769 40.8485 43.4595 40.8485ZM47.4798 37.1129C46.8623 37.1129 46.3612 36.6251 46.3612 36.027C46.3612 35.4298 46.864 34.942 47.4798 34.942C48.0959 34.942 48.5986 35.4298 48.5986 36.027C48.5986 36.6265 48.0974 37.1129 47.4798 37.1129Z" fill="#E9322E"/>
<path d="M43.4595 39.3393C43.7004 39.3393 43.8954 39.5285 43.8954 39.7614C43.8954 39.9951 43.7004 40.1844 43.4595 40.1844C43.2194 40.1844 43.0235 39.9951 43.0235 39.7614C43.0235 39.5284 43.2193 39.3393 43.4595 39.3393Z" fill="#E9322E"/>
<path d="M33.7005 32.1353H23.7953V34.6931H33.7005V32.1353Z" fill="#E9322E"/>
<path d="M55.9467 39.4373C55.2098 39.4373 54.5117 39.7658 54.0355 40.3377C54.0172 40.3597 53.9962 40.3817 53.9748 40.4018L49.2183 44.9198C49.1949 44.9478 49.1683 44.9712 49.1379 44.9979C48.5781 45.4606 48.2574 46.1224 48.2574 46.8137C48.2574 48.1371 49.3671 49.2131 50.73 49.2131C51.4773 49.2131 52.1792 48.8784 52.6576 48.2956C52.6774 48.2712 52.7001 48.2493 52.7214 48.2271L57.2134 43.9258C57.256 43.881 57.3015 43.8398 57.3547 43.8041C58.0216 43.3546 58.4211 42.6179 58.4211 41.8352C58.4197 40.5131 57.3107 39.4373 55.9467 39.4373ZM51.5003 47.2379C50.8826 47.2379 50.3814 46.7501 50.3814 46.1501C50.3814 45.5518 50.8835 45.0654 51.5003 45.0654C52.117 45.0654 52.6197 45.5533 52.6197 46.1501C52.6197 46.7487 52.1185 47.2379 51.5003 47.2379ZM55.5198 43.5034C54.9028 43.5034 54.4009 43.0162 54.4009 42.4186C54.4009 41.821 54.903 41.3325 55.5198 41.3325C56.1365 41.3325 56.6392 41.8196 56.6392 42.4186C56.6393 43.0179 56.1381 43.5034 55.5198 43.5034Z" fill="#E9322E"/>
<path d="M55.5198 41.9942C55.7606 41.9942 55.9558 42.1836 55.9558 42.4172C55.9558 42.6501 55.7606 42.8401 55.5198 42.8401C55.2798 42.8401 55.0846 42.6501 55.0846 42.4172C55.0846 42.1835 55.2798 41.9942 55.5198 41.9942Z" fill="#E9322E"/>
<path d="M48.825 26.3105H38.3355V21.3394C38.3355 20.923 37.9876 20.5848 37.5577 20.5848H32.818V14.8665C32.818 14.7784 32.7952 14.6963 32.7664 14.6174C32.7952 14.5392 32.818 14.4567 32.818 14.3687C32.818 11.3072 35.3856 8.81622 38.5391 8.81622C41.6973 8.81622 44.2611 11.3072 44.2611 14.3687C44.2611 14.4719 44.2829 14.5691 44.3217 14.659C44.2829 14.7488 44.2611 14.8461 44.2611 14.9497C44.2611 18.843 47.525 22.0102 51.5384 22.0102H63.257C63.6869 22.0102 64.0347 21.6721 64.0347 21.2557C64.0347 20.8391 63.6869 20.5012 63.257 20.5012H51.543C48.3869 20.5012 45.8204 18.0109 45.8204 14.9497C45.8204 14.8462 45.8005 14.7488 45.7611 14.659C45.8005 14.5691 45.8204 14.4719 45.8204 14.3687C45.8204 10.4749 42.5573 7.30703 38.5436 7.30703C34.53 7.30703 31.2655 10.4749 31.2655 14.3687C31.2655 14.4567 31.2887 14.5392 31.3176 14.6174C31.2887 14.6963 31.2655 14.7784 31.2655 14.8665V20.5847H26.5263C26.0964 20.5847 25.7484 20.923 25.7484 21.3392V26.3104H16.1749C7.25547 26.3105 0 33.349 0 42.0014C0 50.6534 7.25547 57.693 16.1746 57.693C21.1821 57.693 25.7918 55.5049 28.8867 51.677H36.1128C39.2081 55.5028 43.8179 57.693 48.8256 57.693C57.7444 57.693 64.9998 50.6534 64.9998 42.0014C64.9993 33.349 57.7436 26.3105 48.825 26.3105ZM22.1698 44.7414C22.1698 45.1578 21.822 45.4961 21.3921 45.4961H17.8077V48.9725C17.8077 49.3883 17.4601 49.7272 17.0299 49.7272H11.8125C11.3826 49.7272 11.0348 49.3883 11.0348 48.9725V45.4961H7.45066C7.02077 45.4961 6.67292 45.1578 6.67292 44.7414V39.679C6.67292 39.2617 7.02092 38.9245 7.45066 38.9245H11.0348V35.4476C11.0348 35.0306 11.3828 34.6931 11.8125 34.6931H17.0299C17.4603 34.6931 17.8077 35.0306 17.8077 35.4476V38.9245H21.3921C21.822 38.9245 22.1698 39.2617 22.1698 39.679V44.7414V44.7414ZM22.2397 35.4462V31.3799C22.2397 30.9633 22.5873 30.6254 23.0174 30.6254H34.4782C34.9082 30.6254 35.2561 30.9632 35.2561 31.3799V35.4462C35.2561 35.8633 34.9082 36.2008 34.4782 36.2008H23.0174C22.5865 36.2008 22.2397 35.8633 22.2397 35.4462ZM30.7093 43.9041L28.186 46.3519C28.0342 46.4996 27.8352 46.5732 27.6361 46.5732C27.4372 46.5732 27.2378 46.4996 27.0861 46.3519C26.782 46.0573 26.782 45.5799 27.0861 45.2849L29.6095 42.8371C29.9133 42.5424 30.405 42.5424 30.7093 42.8371C31.0124 43.132 31.0117 43.611 30.7093 43.9041ZM35.601 43.8775L33.0503 46.3521C32.8996 46.4998 32.7002 46.5733 32.5004 46.5733C32.3014 46.5733 32.102 46.4998 31.9498 46.3521C31.6455 46.0574 31.6455 45.58 31.9498 45.2851L34.5012 42.8108C34.8056 42.5159 35.2956 42.5159 35.6012 42.8108C35.9047 43.1067 35.9032 43.5837 35.601 43.8775ZM36.7799 26.3105H27.3016V22.0939H36.7799V26.3105ZM42.6907 44.3339C40.4705 44.3339 38.6619 42.5809 38.6619 40.4245C38.6619 39.3104 39.1617 38.2508 40.0368 37.5036C40.0399 37.5005 40.0436 37.496 40.0481 37.4932L44.8165 32.9621C45.5899 32.0561 46.7134 31.5376 47.9103 31.5376C50.1299 31.5376 51.9392 33.29 51.9392 35.4454C51.9392 36.6966 51.3163 37.8733 50.2697 38.6074L45.8064 42.88C45.0317 43.8048 43.8983 44.3339 42.6907 44.3339ZM58.3103 44.997L53.8442 49.2723C53.0717 50.1957 51.94 50.7233 50.7301 50.7233C48.5098 50.7233 46.7019 48.971 46.7019 46.8156C46.7019 45.7023 47.2024 44.6412 48.0761 43.894C48.0791 43.8896 48.0843 43.8865 48.0874 43.8837L52.8584 39.3532C53.631 38.4469 54.7542 37.9274 55.9497 37.9274C58.1699 37.9274 59.9799 39.6805 59.9799 41.8366C59.9753 43.0848 59.3557 44.2609 58.3103 44.997Z" fill="#E9322E"/>
<path d="M16.2521 39.679V36.2023H12.5902V39.679C12.5902 40.0954 12.2427 40.4334 11.8125 40.4334H8.2284V43.9862H11.8125C12.2428 43.9862 12.5902 44.3229 12.5902 44.7408V48.2166H16.2521V44.7408C16.2521 44.3229 16.6 43.9862 17.0298 43.9862H20.6142V40.4334H17.0298C16.6 40.4334 16.2521 40.0952 16.2521 39.679Z" fill="#E9322E"/>
</svg>
