<svg width="50" height="50" viewBox="0 0 50 50" fill="none" xmlns="http://www.w3.org/2000/svg">
<path d="M42.0206 23.8965C42.0162 21.5987 40.5675 19.5977 38.4811 18.9341C37.6705 18.6753 36.8297 18.6367 35.985 18.6753C35.61 18.6924 35.3985 18.71 35.442 18.1406C35.5455 16.7481 35.5626 15.3384 35.502 13.937C35.3038 9.32375 32.0787 5.43459 27.5343 4.24904C23.2228 3.12404 18.6051 5.01662 16.1261 8.83205C14.1427 11.876 14.4059 15.2256 14.565 18.6748C13.983 18.6748 13.4571 18.6621 12.9352 18.6748C10.1886 18.7481 7.99863 20.9209 7.98544 23.6631C7.95957 29.419 7.95517 35.1743 7.98544 40.9302C8.00253 43.7285 10.1798 46.0181 12.961 46.0347C21.0318 46.0864 29.1075 46.082 37.1783 46.0347C39.8644 46.0176 42.0074 43.7539 42.0201 41.0596C42.0421 35.3394 42.0377 29.6177 42.0206 23.8965V23.8965ZM27.6378 32.5283C27.2154 32.8472 27.086 33.1494 27.0987 33.645C27.129 34.9038 27.1202 36.1675 27.1075 37.4263C27.086 38.8794 26.2623 39.7544 24.9605 39.7329C23.7057 39.7158 22.921 38.8535 22.8995 37.4478C22.8868 36.7105 22.878 35.9776 22.8995 35.2403C22.9386 33.9595 22.8951 32.8775 21.7398 31.8428C20.4937 30.7222 20.4723 29.0191 21.2052 27.4541C21.964 25.8413 23.3004 25.0913 24.7403 24.9878C26.797 25.0093 28.4395 26.2251 29.0045 27.9155C29.5645 29.6006 29.0562 31.4546 27.6378 32.5283V32.5283ZM30.5606 18.6885C28.7369 18.6538 26.9132 18.6753 25.0895 18.6753C23.2311 18.6753 21.3687 18.6367 19.5103 18.6924C18.7857 18.7144 18.6436 18.4639 18.6695 17.8086C18.7213 16.6875 18.6739 15.5625 18.6866 14.4414C18.7257 10.9317 21.4889 8.15969 24.9601 8.1426C28.4352 8.12551 31.2418 10.8672 31.315 14.377C31.3409 15.5713 31.2804 16.7656 31.3321 17.9556C31.3585 18.5845 31.1256 18.6968 30.5606 18.6885V18.6885Z" fill="#E9322E"/>
</svg>
