<svg width="30" height="30" viewBox="0 0 27 25" fill="none" xmlns="http://www.w3.org/2000/svg">
<path d="M13.0437 1.5625C10.7901 1.5625 8.587 2.20397 6.71313 3.4058C4.83926 4.60763 3.37876 6.31583 2.51631 8.3144C1.65386 10.313 1.42821 12.5121 1.86788 14.6338C2.30755 16.7555 3.3928 18.7043 4.9864 20.234C6.57999 21.7636 8.61035 22.8053 10.8207 23.2273C13.0311 23.6494 15.3222 23.4328 17.4044 22.6049C19.4865 21.7771 21.2661 20.3752 22.5182 18.5765C23.7703 16.7779 24.4386 14.6632 24.4386 12.5C24.4386 9.59919 23.238 6.8172 21.1011 4.76602C18.9642 2.71484 16.0658 1.5625 13.0437 1.5625Z" fill="#E9322E"/>
<path d="M17.3842 13.5417H8.70241C8.41459 13.5417 8.13856 13.4319 7.93504 13.2366C7.73152 13.0412 7.61719 12.7763 7.61719 12.5C7.61719 12.2237 7.73152 11.9588 7.93504 11.7634C8.13856 11.5681 8.41459 11.4583 8.70241 11.4583H17.3842C17.672 11.4583 17.948 11.5681 18.1515 11.7634C18.3551 11.9588 18.4694 12.2237 18.4694 12.5C18.4694 12.7763 18.3551 13.0412 18.1515 13.2366C17.948 13.4319 17.672 13.5417 17.3842 13.5417Z" fill="white"/>
<path d="M13.0437 17.7083C12.7559 17.7083 12.4799 17.5986 12.2763 17.4032C12.0728 17.2079 11.9585 16.9429 11.9585 16.6667V8.33332C11.9585 8.05706 12.0728 7.7921 12.2763 7.59675C12.4799 7.4014 12.7559 7.29166 13.0437 7.29166C13.3315 7.29166 13.6076 7.4014 13.8111 7.59675C14.0146 7.7921 14.1289 8.05706 14.1289 8.33332V16.6667C14.1289 16.9429 14.0146 17.2079 13.8111 17.4032C13.6076 17.5986 13.3315 17.7083 13.0437 17.7083Z" fill="white"/>
</svg>
