<svg width="85" height="80" viewBox="0 0 98 94" fill="none" xmlns="http://www.w3.org/2000/svg">
<path d="M83.32 70.86C83.32 71.19 83.59 71.46 83.92 71.46C84.25 71.46 84.52 71.19 84.52 70.86C84.52 70.53 84.25 70.26 83.92 70.26C83.59 70.26 83.32 70.53 83.32 70.86ZM70.12 84.48C70.12 85.14 70.65 85.67 71.31 85.67C71.97 85.67 72.5 85.14 72.5 84.48C72.5 83.82 71.97 83.29 71.31 83.29C70.65 83.29 70.12 83.82 70.12 84.48ZM52.33 91.49C52.33 92.48 53.13 93.28 54.12 93.28C55.11 93.28 55.91 92.48 55.91 91.49C55.91 90.5 55.11 89.7 54.12 89.7C53.13 89.7 52.33 90.5 52.33 91.49ZM33.17 90.55C33.17 91.86 34.23 92.93 35.55 92.93C36.86 92.93 37.93 91.87 37.93 90.55C37.93 89.24 36.87 88.17 35.55 88.17C34.24 88.17 33.17 89.24 33.17 90.55ZM16.18 81.83C16.18 83.47 17.51 84.81 19.16 84.81C20.8 84.81 22.14 83.48 22.14 81.83C22.14 80.19 20.81 78.85 19.16 78.85C17.52 78.85 16.18 80.19 16.18 81.83ZM4.42 67.01C4.42 68.98 6.02 70.58 7.99 70.58C9.96 70.58 11.56 68.98 11.56 67.01C11.56 65.04 9.96 63.44 7.99 63.44C6.02 63.44 4.42 65.03 4.42 67.01ZM0 48.81C0 51.11 1.87 52.98 4.17 52.98C6.47 52.98 8.34 51.11 8.34 48.81C8.34 46.51 6.47 44.64 4.17 44.64C1.87 44.64 0 46.51 0 48.81ZM3.63 30.72C3.63 33.35 5.76 35.48 8.39 35.48C11.02 35.48 13.15 33.35 13.15 30.72C13.15 28.09 11.02 25.96 8.39 25.96C5.77 25.96 3.63 28.09 3.63 30.72ZM14.53 16.14C14.53 19.1 16.93 21.5 19.89 21.5C22.85 21.5 25.25 19.1 25.25 16.14C25.25 13.18 22.85 10.78 19.89 10.78C16.93 10.78 14.53 13.18 14.53 16.14ZM30.54 7.78997C30.54 11.08 33.21 13.74 36.49 13.74C39.77 13.74 42.44 11.07 42.44 7.78997C42.44 4.50997 39.77 1.83997 36.49 1.83997C33.21 1.83997 30.54 4.50997 30.54 7.78997ZM48.52 7.26997C48.52 10.89 51.45 13.82 55.07 13.82C58.69 13.82 61.62 10.89 61.62 7.26997C61.62 3.64997 58.69 0.719971 55.07 0.719971C51.45 0.719971 48.52 3.65997 48.52 7.26997ZM64.98 14.68C64.98 18.62 68.18 21.82 72.12 21.82C76.06 21.82 79.26 18.62 79.26 14.68C79.26 10.74 76.06 7.53997 72.12 7.53997C68.17 7.53997 64.98 10.73 64.98 14.68ZM76.67 28.59C76.67 32.86 80.14 36.33 84.41 36.33C88.68 36.33 92.15 32.86 92.15 28.59C92.15 24.32 88.68 20.85 84.41 20.85C80.14 20.85 76.67 24.31 76.67 28.59ZM81.32 46.61C81.32 51.21 85.05 54.95 89.66 54.95C94.26 54.95 98 51.22 98 46.61C98 42.01 94.27 38.27 89.66 38.27C85.06 38.27 81.32 42 81.32 46.61Z" fill="#E9322E"/>
</svg>
