<svg width="22" height="21" viewBox="0 0 22 21" fill="none" xmlns="http://www.w3.org/2000/svg">
<path d="M21.2001 8.09335C21.1287 7.87399 20.9354 7.71746 20.7068 7.69302L14.0037 7.01106L11.2857 0.83209C11.1929 0.622614 10.9845 0.485291 10.7547 0.485291C10.5248 0.485291 10.3165 0.62145 10.2236 0.833254L7.50502 7.01164L0.803167 7.69302C0.57449 7.7163 0.380637 7.87457 0.309828 8.09335C0.23844 8.31272 0.303444 8.55362 0.475242 8.70724L5.49685 13.2098L4.07313 19.8101C4.02496 20.0352 4.11318 20.268 4.29948 20.4036C4.40105 20.4775 4.52062 20.5147 4.64076 20.5147C4.74117 20.5147 4.84216 20.4885 4.9327 20.435L10.7553 17.0368L16.5766 20.435C16.7751 20.5496 17.0236 20.5386 17.2099 20.4007C17.3956 20.2674 17.485 20.0323 17.4368 19.8072L16.0131 13.2063L21.0353 8.70433C21.2059 8.55304 21.2715 8.31214 21.2001 8.09335ZM14.9864 12.5674C14.8308 12.7071 14.7617 12.9195 14.8059 13.1243L16.0229 18.7656L11.0466 15.862C10.8661 15.7561 10.6432 15.7561 10.4627 15.862L5.48524 18.7656L6.70233 13.1243C6.74644 12.9195 6.67737 12.7071 6.52183 12.5674L2.2292 8.71946L7.95773 8.13641C8.16552 8.11605 8.34544 7.9828 8.43018 7.79194L10.7541 2.51023L13.0774 7.79194C13.1622 7.9828 13.3421 8.11605 13.5499 8.13641L19.2784 8.71946L14.9864 12.5674Z" fill="#E9322E"/>
</svg>
