<svg width="33" height="33" viewBox="0 0 33 33" fill="none" xmlns="http://www.w3.org/2000/svg">
<g clip-path="url(#clip0_39_350)">
<path d="M30.229 3.18711C29.8709 3.19823 29.512 3.29158 29.1866 3.43783C28.5929 3.66577 22.3425 6.08693 16.0898 8.50488C12.9611 9.71479 9.83705 10.9215 7.43196 11.8483C5.02674 12.7751 3.27723 13.4439 3.10446 13.5043C2.53124 13.7055 1.70517 14.0273 1.15151 14.6775C0.874816 15.0027 0.667093 15.5874 0.909906 16.0878C1.15258 16.5887 1.62013 16.8651 2.28187 17.1177L2.30223 17.1255L2.32312 17.1319C4.73357 17.8752 8.3716 19.0156 8.86192 19.1693C8.98915 19.5891 10.5242 24.6423 11.3597 27.3772C11.5742 27.9431 12.2111 28.3224 12.8025 28.2423C12.9088 28.2459 13.1057 28.2442 13.3245 28.1917C13.6437 28.1154 14.055 27.934 14.4461 27.5667L14.4463 27.5664C15.0025 27.0441 16.9809 25.1057 17.5712 24.5272L24.0359 29.3008L24.06 29.3155C24.06 29.3155 24.645 29.7031 25.4172 29.7553C25.8033 29.7814 26.2752 29.7111 26.6835 29.413C27.092 29.1146 27.3867 28.6215 27.5342 27.9786C28.0383 25.7829 31.4755 9.43126 32.065 6.70582C32.4323 5.31992 32.2582 4.24421 31.5695 3.6426C31.2226 3.33992 30.8095 3.20399 30.3873 3.18791C30.3346 3.18591 30.2818 3.18577 30.2289 3.18738L30.229 3.18711ZM30.302 4.52908C30.47 4.53175 30.6047 4.57796 30.6885 4.65095C30.8562 4.79733 31.074 5.23836 30.7654 6.38452C29.0997 13.7835 27.6481 21.3457 26.2292 27.6784C26.1315 28.1026 25.9946 28.2573 25.8937 28.331C25.7928 28.4049 25.6777 28.4306 25.5075 28.4191C25.1744 28.3963 24.7896 28.1888 24.7725 28.1794L14.2983 20.4457C15.3276 19.4726 22.2229 12.9575 25.9973 9.51309C26.4076 9.118 26.0755 8.40443 25.5245 8.413C24.8155 8.55631 24.2334 9.06256 23.591 9.3789C18.9316 12.1057 10.1204 17.4431 9.34071 17.9158C8.93357 17.788 5.20366 16.6185 2.75183 15.8624C2.36008 15.7113 2.2212 15.5918 2.17004 15.5463C2.17098 15.545 2.17031 15.5468 2.17138 15.5456C2.35379 15.3314 3.10486 14.9234 3.54776 14.7679C3.88299 14.6503 5.50754 14.0254 7.91383 13.0982C10.3199 12.1712 13.4443 10.9637 16.5727 9.75403C20.953 8.06024 25.3397 6.36296 29.7161 4.66742C29.9326 4.56698 30.1339 4.52653 30.302 4.52921V4.52908ZM13.8607 21.7871L16.4796 23.721C15.752 24.4335 14.0251 26.1233 13.5434 26.5767L13.8608 21.7871H13.8607Z" fill="white"/>
</g>
<defs>
<clipPath id="clip0_39_350">
<rect x="0.428589" y="0.571533" width="32.1429" height="32.1429" rx="5" fill="white"/>
</clipPath>
</defs>
</svg>
