<svg width="32" height="25" viewBox="0 0 32 25" fill="none" xmlns="http://www.w3.org/2000/svg">
<g clip-path="url(#clip0_113_636)">
<path d="M8.13079 24.8239H6.69351L4.22211 21.3908L1.73317 24.8239H0.295898L3.48594 20.4049L0.558814 16.338H1.99609L4.22211 19.419L6.44813 16.338H7.8854L4.94074 20.4049L8.13079 24.8239ZM15.5976 22.412C15.5976 23.1514 15.3522 23.75 14.8614 24.1725C14.3707 24.5951 13.6695 24.8239 12.7581 24.8239H8.81437V21.0387H6.92137L7.71012 19.9472H8.81437V16.338H12.6004C13.4592 16.338 14.1077 16.5493 14.5635 16.9542C15.0192 17.3592 15.247 17.9049 15.247 18.5563C15.247 19.3662 14.879 20 14.1428 20.4049C14.616 20.581 14.9666 20.8627 15.212 21.1972C15.4749 21.5317 15.5976 21.9542 15.5976 22.412ZM10.0939 19.9648H12.5127C13.0035 19.9648 13.3716 19.8592 13.617 19.6303C13.8623 19.419 13.985 19.0845 13.985 18.6444C13.985 18.2746 13.8623 17.9754 13.5994 17.7641C13.354 17.5528 12.986 17.4472 12.5127 17.4472H10.0939V19.9648ZM14.3005 22.3768C14.3005 21.9366 14.1603 21.5845 13.8974 21.3732C13.6345 21.1444 13.2314 21.0387 12.7055 21.0387H10.0939V23.6972H12.688C13.1963 23.6972 13.5994 23.5739 13.8799 23.3627C14.1603 23.1338 14.3005 22.7993 14.3005 22.3768ZM24.2913 20.581C24.2913 21.2324 24.2037 21.8486 24.0109 22.3768C23.8181 22.9049 23.5376 23.3803 23.1696 23.7852C22.784 24.1901 22.3458 24.507 21.855 24.7007C21.3642 24.912 20.8033 25 20.1723 25C19.5589 25 18.9804 24.8944 18.4897 24.7007C17.9989 24.4894 17.5607 24.1901 17.1751 23.7852C16.7895 23.3803 16.509 22.9049 16.3162 22.3768C16.1234 21.8486 16.0358 21.2324 16.0358 20.581C16.0358 19.9296 16.1234 19.3134 16.3162 18.7852C16.509 18.257 16.7895 17.7641 17.1751 17.3592C17.5432 16.9542 17.9814 16.6549 18.4897 16.4437C18.9804 16.25 19.5589 16.1444 20.1723 16.1444C20.7858 16.1444 21.3467 16.25 21.855 16.4437C22.3458 16.6373 22.8015 16.9542 23.1696 17.3592C23.5376 17.7641 23.8356 18.257 24.0109 18.7852C24.1862 19.3134 24.2913 19.912 24.2913 20.581ZM17.3679 20.581C17.3679 21.5845 17.6308 22.3768 18.1391 22.9577C18.6474 23.5387 19.3135 23.838 20.1723 23.838C21.0137 23.838 21.6972 23.5387 22.2055 22.9577C22.7138 22.3768 22.9592 21.5845 22.9592 20.581C22.9592 19.5775 22.7138 18.7676 22.2055 18.1866C21.6972 17.6056 21.0137 17.3063 20.1723 17.3063C19.331 17.3063 18.6474 17.6056 18.1391 18.1866C17.6308 18.7852 17.3679 19.5775 17.3679 20.581ZM28.3578 20.4049L31.3024 16.338H29.8652L27.6391 19.419L25.4131 16.338H23.9758L26.9205 20.4049L23.7304 24.8239H25.1677L27.6391 21.3908L30.1281 24.8239H31.5653L28.3578 20.4049ZM15.9306 5.66901C15.9306 5.66901 15.9481 5.66901 15.9306 5.66901C18.0515 7.28873 21.6447 11.2676 20.5579 12.3944C19.3135 13.4859 17.7009 14.1373 15.9306 14.1373C14.1603 14.1373 12.5302 13.4859 11.3033 12.3944C10.1991 11.2676 13.8098 7.28873 15.9131 5.68662C15.9131 5.66901 15.9306 5.66901 15.9306 5.66901ZM19.5939 1.03873C18.5247 0.387324 17.3504 0 15.9306 0C14.5109 0 13.3365 0.387324 12.2673 1.03873C12.2498 1.03873 12.2498 1.05634 12.2498 1.07394C12.2498 1.09155 12.2673 1.09155 12.2849 1.09155C13.652 0.792253 15.7203 1.97183 15.9131 2.09507H15.9481C16.141 1.97183 18.2092 0.792253 19.5764 1.09155C19.5939 1.09155 19.6114 1.09155 19.6114 1.07394C19.6114 1.05634 19.6114 1.03873 19.5939 1.03873ZM11.0053 2.02465C10.9878 2.02465 10.9878 2.04225 10.9703 2.04225C9.69075 3.32746 8.90201 5.10563 8.90201 7.05986C8.90201 8.66197 9.44536 10.1585 10.3393 11.338C10.3393 11.3556 10.3568 11.3556 10.3743 11.3556C10.3919 11.3556 10.3919 11.338 10.3743 11.3204C9.83097 9.64789 12.5828 5.6162 14.0026 3.92606L14.0201 3.90845C14.0201 3.89085 14.0201 3.89085 14.0026 3.89085C11.8467 1.74296 11.128 1.97183 11.0053 2.02465ZM17.8587 3.87324L17.8411 3.89085C17.8411 3.89085 17.8411 3.90845 17.8587 3.90845C19.2784 5.59859 22.0127 9.63028 21.4869 11.3028V11.338C21.5044 11.338 21.522 11.338 21.522 11.3204C22.4159 10.1408 22.9592 8.64437 22.9592 7.04225C22.9592 5.08803 22.1705 3.30986 20.8734 2.02465C20.8559 2.00704 20.8559 2.00704 20.8384 2.00704C20.7332 1.97183 20.0146 1.74296 17.8587 3.87324Z" fill="#E9322E"/>
</g>
<defs>
<clipPath id="clip0_113_636">
<rect width="31.2694" height="25" fill="white" transform="translate(0.295898)"/>
</clipPath>
</defs>
</svg>
