<svg width="120" height="120" viewBox="0 0 120 120" fill="none" xmlns="http://www.w3.org/2000/svg">
<g clip-path="url(#clip0_807_652)">
<path d="M29.3975 50.5825C28.6175 49.8003 27.3513 49.8003 26.5694 50.5825C20.499 56.6528 20.499 63.3411 26.5694 69.4115L32.1637 75.0058L13.5527 93.6168L11.4746 91.5547C9.91668 89.9946 7.38037 89.9906 5.82639 91.5446L1.17006 96.2028C-0.39002 97.7608 -0.39002 100.299 1.17006 101.859L18.139 118.83C18.919 119.61 19.9452 120 20.9692 120C21.9932 120 23.0194 119.61 23.7973 118.83L28.4536 114.176C29.2698 113.359 29.6638 112.219 29.5377 111.047C29.4216 109.974 28.8917 108.939 28.0057 108.053L26.3856 106.441L44.9927 87.8364L50.5708 93.4127C56.7312 99.571 63.2395 99.571 69.3998 93.4127C70.1818 92.6305 70.1818 91.3665 69.3998 90.5846L29.3975 50.5825ZM53.3987 90.5846L46.4063 83.5921C45.6241 82.8121 44.3601 82.8121 43.5781 83.5921L23.5531 103.619L20.401 100.481C19.6191 99.701 18.3548 99.705 17.5708 100.487C16.7908 101.269 16.7948 102.535 17.5769 103.315L25.1792 110.886C25.4753 111.18 25.5512 111.402 25.6152 111.358L20.9671 116.002L3.99817 99.0312L8.65239 94.3889L12.1506 97.8611C12.9307 98.6351 14.1947 98.6332 14.9729 97.855L34.9919 77.836L38.5881 81.4301C39.3702 82.2123 40.6342 82.2123 41.4162 81.4301C42.1981 80.648 42.1981 79.382 41.4162 78.602L29.3975 66.5834C25.3452 62.531 24.8973 58.8669 28.0575 54.9008L65.0834 91.9248C61.1171 95.0827 57.4529 94.6367 53.3987 90.5846Z" fill="#E9322E"/>
<path d="M119.872 1.31209C119.854 1.26404 119.832 1.21997 119.81 1.17403C119.712 0.957929 119.59 0.754013 119.418 0.581973C119.246 0.409933 119.042 0.288052 118.828 0.189844C118.78 0.167811 118.736 0.145779 118.688 0.127731C118.476 0.0517898 118.256 0.00374044 118.03 -0.000244141C117.996 -0.000244141 117.966 0.00772501 117.932 0.0098345C117.81 0.0138191 117.69 0.0178037 117.57 0.0438206L81.5682 8.04415C81.1022 8.14822 80.6881 8.41425 80.4021 8.7963L44.4003 56.7987C43.7363 57.6828 43.9163 58.9368 44.8004 59.599C45.6864 60.2651 46.9406 60.083 47.6006 59.1989L83.158 11.7885L111.734 5.43824L52.5865 64.5853C51.8043 65.3675 51.8043 66.6315 52.5865 67.4134C52.9765 67.8034 53.4886 67.9994 54.0005 67.9994C54.5124 67.9994 55.0246 67.8034 55.4146 67.4134L114.56 8.26846L108.211 36.8419L60.801 72.3998C59.9169 73.0619 59.7369 74.3159 60.4009 75.2C60.7949 75.7241 61.3931 75.9999 62.003 75.9999C62.4211 75.9999 62.8411 75.8699 63.2011 75.5998L111.204 39.598C111.586 39.3121 111.854 38.8979 111.958 38.4319L119.958 2.43011C119.984 2.308 119.986 2.18401 119.99 2.06213C119.992 2.03212 120 2.00212 120 1.97212C119.996 1.74617 119.95 1.52397 119.872 1.31209Z" fill="#E9322E"/>
</g>
<defs>
<clipPath id="clip0_807_652">
<rect width="120" height="120" fill="white"/>
</clipPath>
</defs>
</svg>
