<svg width="120" height="120" viewBox="0 0 120 120" fill="none" xmlns="http://www.w3.org/2000/svg">
<path d="M34.5015 70.6191L51.0911 79.1787L55.6597 68.0864L50.0807 65.2079L50.5365 63.6919L48.5341 63.3297C44.173 62.5405 41.426 58.9595 40.9933 56.5395L37.4099 36.4952L45.6998 55.6981C46.3611 57.2292 47.744 58.328 49.3855 58.6248L68.9648 62.1671C71.6645 62.656 74.2614 60.8655 74.7522 58.1531C75.2419 55.4467 73.445 52.8558 70.7382 52.3657L53.7864 49.2987L46.2795 31.9091L56.2526 44.6879L58.8877 35.9267C60.069 31.9995 57.8427 27.8584 53.9155 26.6771L41.2347 22.863C39.7116 22.4049 38.1585 22.4646 36.7565 22.932L37.0071 22.2718C38.6713 17.8884 36.4673 12.9855 32.0835 11.3213L29.393 10.2998L23.2602 27.2863C22.8096 28.5353 21.4279 29.1759 20.1824 28.717L11.3643 25.4555L10.0129 29.0154L8.03832 28.2656C6.98889 27.8671 5.81476 28.395 5.41635 29.4445L2.88481 36.1132C2.4864 37.1626 3.0143 38.3367 4.06373 38.7351L6.03827 39.4849L5.01713 42.1743C3.35295 46.5576 5.55699 51.4605 9.94075 53.1247L15.4222 55.2056C18.576 56.4033 21.9988 55.5977 24.2909 53.4187L21.7685 61.805C20.9793 63.1198 20.6928 64.7361 21.0976 66.3405L26.6415 88.3351L24.11 113.274C23.753 116.789 26.5089 119.854 30.0627 119.854C33.0919 119.854 35.6884 117.559 36.0007 114.481L38.6382 88.4972C38.7088 87.806 38.6578 87.1072 38.4876 86.433L34.5015 70.6191V70.6191Z" fill="#E9322E"/>
<path d="M66.9419 86.7256L59.5234 104.737C60.835 107.021 63.551 108.238 66.2184 107.539C69.4113 106.703 71.3213 103.436 70.4843 100.243L66.9419 86.7256V86.7256Z" fill="#E9322E"/>
<path d="M53.7081 21.9846C59.779 21.9846 64.7004 17.0632 64.7004 10.9923C64.7004 4.92141 59.779 0 53.7081 0C47.6372 0 42.7158 4.92141 42.7158 10.9923C42.7158 17.0632 47.6372 21.9846 53.7081 21.9846Z" fill="#E9322E"/>
<path d="M76.7494 50.3604L80.6538 40.8813C81.4921 38.847 80.522 36.5183 78.4872 35.68C76.4525 34.8418 74.1238 35.8123 73.2859 37.8466L69.4058 47.2672L71.5895 47.6624C73.5732 48.021 75.3553 48.9624 76.7494 50.3604V50.3604Z" fill="#E9322E"/>
<path d="M69.8563 67.0291C68.7096 67.0291 68.6802 66.9749 61.8011 65.7302L41.715 114.497C40.8767 116.532 41.8469 118.86 43.8816 119.698C45.9163 120.537 48.245 119.566 49.0829 117.532L69.8846 67.0279C69.8746 67.0279 69.8654 67.0291 69.8563 67.0291V67.0291Z" fill="#E9322E"/>
<path d="M116.33 69.9291C115.782 69.7538 115.184 69.9522 114.851 70.4199L109.256 78.2563C107.685 80.456 105.82 82.4289 103.711 84.1194L93.9629 91.9332C91.4361 93.9587 89.1902 96.3117 87.2846 98.9301L86.1005 100.558C84.1897 103.184 81.712 105.345 78.851 106.883L71.8285 110.656L56.1313 117.36C55.554 117.607 55.2297 118.225 55.3556 118.841C55.4815 119.456 56.0225 119.897 56.6504 119.897H109.44C113.752 119.897 117.248 116.401 117.248 112.089V71.188C117.248 70.6131 116.877 70.1044 116.33 69.9291V69.9291Z" fill="#E9322E"/>
<path d="M24.8575 8.78345C20.9873 8.19459 17.0976 10.3564 15.6517 14.1644L13.062 20.9853L19.5821 23.3969L24.8575 8.78345V8.78345Z" fill="#E9322E"/>
</svg>
