<svg width="120" height="120" viewBox="0 0 120 120" fill="none" xmlns="http://www.w3.org/2000/svg">
<path d="M51.6817 1.40046C50.6785 1.81566 50.2381 2.35446 50.0665 3.48006C49.9681 4.23846 49.7977 4.55646 49.5037 4.55646C48.6961 4.55646 43.6321 5.80446 40.9657 6.66006C37.6873 7.71246 32.3293 10.3056 29.4181 12.2628C21.1489 17.8164 15.4969 25.4989 12.3409 35.4073C11.5825 37.7317 10.5793 42.2089 10.5793 43.1629C10.5793 43.5301 10.3597 43.6765 9.72251 43.7989C9.25811 43.8961 8.57291 44.2393 8.20571 44.5573L7.52051 45.1201V53.7325V62.3449L8.32811 63.0541C8.86691 63.5437 9.38051 63.7633 9.94331 63.7633C10.8973 63.7633 10.8733 63.6901 11.4361 66.6985C12.1705 70.6861 13.9321 76.6069 15.7417 81.1333C21.9073 96.6205 32.4517 109.171 44.3425 115.141C46.9849 116.462 51.4621 117.93 54.3493 118.42C57.3097 118.909 62.6185 118.933 65.6281 118.444C83.8057 115.483 101.031 96.0577 107.563 71.1025C107.905 69.8305 108.346 67.8481 108.567 66.6985C109.153 63.6649 109.105 63.7633 110.059 63.7633C110.622 63.7633 111.136 63.5437 111.675 63.0541L112.482 62.3449V53.7325V45.1201L111.797 44.5573C111.43 44.2393 110.745 43.8961 110.28 43.7989C109.693 43.7005 109.423 43.5049 109.423 43.2121C109.423 42.2821 108.371 37.6345 107.662 35.4073C102.695 19.6513 90.6829 9.00845 73.5805 5.16725C72.0637 4.82525 70.6693 4.55525 70.4737 4.55525C70.2541 4.55525 70.0333 4.13885 69.8869 3.40565C69.7405 2.59805 69.4705 2.13366 68.9821 1.76646C68.3209 1.27686 67.9789 1.25285 60.2965 1.20365C55.3513 1.18085 52.0729 1.25406 51.6817 1.40046ZM64.8937 16.2997V26.3305H60.0001H55.1065V16.2997V6.26885H60.0001H64.8937V16.2997ZM50.0185 19.7257L50.0917 29.7565L50.7769 30.4177L51.4381 31.1029H60.0001H68.5633L69.2233 30.4177L69.9085 29.7565L69.9817 19.7257L70.0549 9.69485H70.5937C71.3761 9.69485 74.9977 10.5757 77.2489 11.3341C91.8553 16.1545 101.25 26.8945 104.161 42.0385L104.479 43.7017L99.7813 43.7269C94.3993 43.7269 93.6157 43.8985 92.9557 45.1705C92.5645 45.9529 92.5393 46.7605 92.5885 54.1501L92.6617 62.2969L93.3469 62.9569L94.0069 63.6421L99.0229 63.7153C101.788 63.7645 104.038 63.8377 104.038 63.8617C104.038 64.2781 102.937 69.0973 102.448 70.9081C97.8973 87.2509 88.4785 101.221 77.0041 108.586C67.8781 114.481 57.8233 115.486 48.4525 111.473C34.5565 105.528 22.7389 89.8693 17.4541 70.3705C16.8913 68.3161 15.9613 64.2793 15.9613 63.8869C15.9613 63.8377 18.2125 63.7645 20.9773 63.7153L25.9933 63.6421L26.6545 62.9569L27.3397 62.2969L27.4129 54.3949C27.4621 49.1593 27.4129 46.1989 27.2173 45.5869C26.7529 43.9717 26.3125 43.8505 20.5873 43.7029L15.5473 43.5805L16.0117 41.2813C18.7765 27.6541 27.2665 17.3785 39.9397 12.3865C43.0717 11.1637 48.0625 9.72005 49.2853 9.69485H49.9453L50.0185 19.7257ZM22.3225 53.8549V58.8709L17.3809 58.8217L12.4141 58.7485L12.3409 53.7817L12.2917 48.8401H17.3077H22.3237V53.8549H22.3225ZM107.659 53.7817L107.586 58.7485L102.643 58.8217L97.6765 58.8709V53.8549V48.8389H102.693H107.709L107.659 53.7817Z" fill="#E9322E"/>
<path d="M58.2875 21.6097C57.2111 22.1725 56.9903 23.1757 57.8471 23.7133C59.6579 24.8881 62.4467 24.1777 62.4467 22.5637C62.4467 21.5113 59.7059 20.8753 58.2875 21.6097Z" fill="#E9322E"/>
<path d="M40.4268 46.8578C36.708 48.0326 33.87 51.017 32.8428 54.7598C32.6712 55.469 32.574 56.7902 32.6472 58.2098C32.7204 60.1922 32.8428 60.7058 33.6012 62.2958C38.0052 71.495 51.3876 70.565 54.3732 60.8522C56.6244 53.6102 51.2172 46.3442 43.6332 46.4174C42.5556 46.4174 41.1852 46.613 40.4268 46.8578ZM46.422 51.971C49.284 53.4146 50.6304 56.693 49.602 59.6042C48.33 63.1766 44.244 64.8398 40.8924 63.0782C36.3168 60.6806 36.366 54.3686 40.9656 52.019C42.3108 51.3338 42.678 51.2606 43.9752 51.359C44.7828 51.4082 45.9072 51.6782 46.422 51.971Z" fill="#E9322E"/>
<path d="M72.9675 46.8577C68.2695 48.3505 65.1387 52.6321 65.1387 57.5497C65.1387 61.9045 67.4631 65.6473 71.3775 67.5805C77.0043 70.3201 83.6835 67.9717 86.3991 62.2957C87.1575 60.7057 87.2799 60.1921 87.3531 58.2097C87.5247 54.6865 86.6679 52.2889 84.3927 49.8913C81.5055 46.8097 76.8819 45.5857 72.9675 46.8577ZM79.0347 52.0453C82.6071 53.8309 83.6343 58.2109 81.2127 61.3669C79.4511 63.6913 76.1487 64.4497 73.5063 63.1285C70.5219 61.6357 69.2247 58.0393 70.6191 55.0789C72.2091 51.6529 75.7323 50.3809 79.0347 52.0453Z" fill="#E9322E"/>
<path d="M57.4307 74.6016C56.0855 75.1896 54.4943 75.972 53.8835 76.3392C52.6847 77.0976 51.1919 78.4188 51.1919 78.7368C51.1919 78.8352 55.1555 78.9324 59.9999 78.9324C65.6999 78.9324 68.8079 78.8352 68.8079 78.6876C68.8079 78.198 67.0955 76.5588 65.9207 75.9228C64.7459 75.2868 60.4403 73.5492 60.0731 73.5492C59.9759 73.5504 58.7771 74.04 57.4307 74.6016Z" fill="#E9322E"/>
<path d="M51.9264 89.4036C50.874 89.9664 49.9692 91.4832 49.9692 92.6328C49.9692 93.7824 50.874 95.2992 51.9264 95.862C52.5384 96.204 53.1252 96.3024 54.03 96.2292C56.0856 96.0828 57.4068 94.6884 57.4068 92.6328C57.4068 90.5772 56.0856 89.1828 54.03 89.0364C53.1252 88.9632 52.5384 89.0616 51.9264 89.4036Z" fill="#E9322E"/>
<path d="M64.4771 89.3556C62.6915 90.2364 62.0303 92.8536 63.1319 94.6404C64.5503 96.9408 68.1227 96.8184 69.4691 94.4448C69.7871 93.9312 70.0319 93.0996 70.0319 92.634C70.0319 91.4844 69.1019 89.9676 68.0747 89.4288C67.0463 88.866 65.5295 88.8408 64.4771 89.3556Z" fill="#E9322E"/>
<path d="M51.8532 101.98C49.4064 103.423 49.4556 107.142 51.9756 108.438C52.9788 108.952 54.6912 108.928 55.6704 108.365C56.796 107.729 57.6516 105.918 57.432 104.622C56.9904 102.029 54.1284 100.658 51.8532 101.98Z" fill="#E9322E"/>
<path d="M64.5011 101.907C62.6171 103.056 62.0543 104.891 62.9843 106.775C63.6695 108.145 64.7207 108.831 66.2135 108.831C69.0755 108.831 70.7879 106.115 69.5651 103.595C68.6363 101.662 66.2147 100.854 64.5011 101.907Z" fill="#E9322E"/>
<path d="M17.8946 51.8245C17.5274 52.4365 17.4302 52.9249 17.5034 53.9041C17.7242 57.1093 20.4146 56.8405 20.4146 53.6101C20.4146 51.2617 18.9218 50.2105 17.8946 51.8245Z" fill="#E9322E"/>
<path d="M100.467 51.2377C99.6097 51.8005 99.3169 54.0757 99.9277 55.3729C100.344 56.2537 101.322 56.4001 101.958 55.6909C102.643 54.9325 102.717 52.8289 102.105 51.8257C101.616 51.0661 101.029 50.8465 100.467 51.2377Z" fill="#E9322E"/>
</svg>
