<svg width="120" height="120" viewBox="0 0 120 120" fill="none" xmlns="http://www.w3.org/2000/svg">
<path d="M55.3828 15.375C55.6641 15.375 56.0156 15.5156 56.3203 15.9375C54.9609 13.9922 57.8438 14.8359 58.0078 12.9844C59.6484 11.7656 59.0625 10.9687 59.5312 10.9219L60.0469 10.5C59.0391 10.875 58.6875 10.9453 58.4062 10.9453C58.3359 10.9453 58.2656 10.9453 58.1953 10.9453C58.125 10.9453 58.0312 10.9453 57.9375 10.9453C57.5859 10.9453 57 11.0156 55.6172 11.4375C52.4531 11.6719 50.1797 15.0938 49.1016 15.1875C48 15.7734 48.0469 15.8906 48.3047 15.8906C48.375 15.8906 48.4687 15.8672 48.5625 15.8672C48.6562 15.8672 48.7266 15.8437 48.7969 15.8437C49.0547 15.8437 48.9844 15.9609 47.4844 16.6641C47.8359 16.7578 44.8594 18.0703 44.8359 20.1328C44.7422 20.9297 45.0703 21.4687 45.6094 21.4687C46.0781 21.4687 46.6641 21.1172 47.2969 20.2266C49.4063 17.7891 53.8594 17.5547 55.7812 16.0781C54.5859 15.9844 54.8203 15.375 55.3828 15.375ZM44.6719 16.1953C44.4609 16.1953 44.7422 15.9375 45.0469 15.6797C45.375 15.4219 45.75 15.1641 45.75 15.1641C45.75 15.1641 45.75 15.1641 45.7266 15.1875C46.9922 14.6953 46.2188 14.5781 46.8984 14.25C46.875 14.25 46.875 14.25 46.8516 14.25C46.7109 14.25 46.9687 14.0625 47.2031 13.8516C47.4375 13.6641 47.6484 13.4531 47.4375 13.4531C47.3203 13.4531 47.0156 13.5234 46.5 13.7344C46.6641 13.5 47.2969 13.3359 48.1875 12.8437C46.8984 13.2656 45.8906 13.5234 45.7734 13.5234C45.6797 13.5234 46.2188 13.3359 47.8359 12.8437C47.9063 12.8437 47.9766 12.8672 48.0234 12.8672C48.1875 12.8672 48.2578 12.8203 48.2344 12.7734C48.2109 12.7266 48.1172 12.7031 47.9531 12.7031C45.6328 12.8906 43.8984 14.3437 44.4141 14.5312C44.7187 14.4375 44.9297 14.3906 45.0703 14.3906C45.375 14.3906 45.2344 14.6484 44.625 15.0234C44.9062 15.6797 39.9375 17.3672 39.375 17.9766C39.6563 17.8125 39.8437 17.7656 39.9375 17.7656C40.3125 17.7656 39.8203 18.4922 39.3281 18.8438C39.6328 19.125 39.8672 19.2188 40.0547 19.2188C40.5469 19.2188 40.7578 18.5391 41.1797 18.3281C41.2734 18.5156 41.3672 18.6094 41.4844 18.6094C41.8828 18.6094 42.375 17.625 42.7734 17.1094C42.8906 17.2266 43.0312 17.3203 43.2187 17.3203C43.5937 17.3203 44.1562 17.0156 45.0469 16.1484C44.8594 16.1719 44.7188 16.1953 44.6719 16.1953ZM39.2813 20.5078C38.4375 21.0234 37.9922 21.2344 37.8047 21.2344C37.4531 21.2344 37.9219 20.5781 38.3438 19.8984C38.7656 19.2422 39.1406 18.5859 38.6016 18.5859C38.3437 18.5859 37.875 18.7266 37.125 19.1016C35.0859 20.4609 31.6406 24.2109 30.1172 24.2109C30.0703 24.2109 30.0234 24.2109 29.9766 24.2109C32.4375 22.4063 31.7109 18.8672 35.1562 17.9531C38.5547 16.0078 40.875 16.6172 43.8984 14.3906C43.0078 14.8359 41.6953 15.3281 41.3906 15.3281C41.2031 15.3281 41.4844 15.0938 42.7031 14.5078C42.5859 14.5313 42.4922 14.5547 42.4219 14.5547C41.6016 14.5547 47.8125 12.3281 48.1172 12.2813C45.5625 12.6328 41.4375 14.7656 40.875 14.7656C40.8047 14.7656 40.8047 14.7422 40.8047 14.6953C40.8984 14.625 40.8984 14.5781 40.8047 14.5781C40.5 14.5781 39.2344 15 37.9453 15.4219C36.6797 15.8438 35.3906 16.2891 35.1094 16.2891C35.0156 16.2891 35.0156 16.2422 35.1562 16.1484C24.0937 22.4297 14.8594 33.0234 11.9766 45.5859C13.1719 48.3281 12.3516 53.5547 14.3203 55.0781C16.5703 56.9766 12.3984 62.4844 13.5 65.8828C14.625 72.0234 19.4766 76.2188 19.9922 82.5C20.8828 86.8125 24.1406 92.0859 25.5 94.8281C26.5313 95.8594 29.3672 98.8359 29.8594 98.8359C30.0469 98.8359 29.9297 98.3906 29.1797 97.1953C28.7109 95.8594 25.9922 92.3672 27.3047 92.3672C27.375 92.3672 27.4453 92.3672 27.5391 92.3906C25.9219 90.75 31.125 91.1953 27.4922 88.9688C27.0703 88.4531 26.9766 88.2891 27.0703 88.2891C27.1875 88.2891 27.5156 88.4766 27.8906 88.6641C28.2891 88.8516 28.7578 89.0391 29.1328 89.0391C29.7188 89.0391 30.1172 88.6406 29.8828 87.1875C29.9766 87.2344 30.0703 87.2344 30.1406 87.2344C30.75 87.2344 30.5391 86.0391 30.5859 84.8438C30.6328 83.6484 30.9375 82.4531 32.5781 82.4531C32.7656 82.4531 32.9766 82.4766 33.1875 82.5C36.9844 80.4375 33.6797 74.7422 38.0391 72.6562C37.875 67.9219 31.5234 67.6875 29.1328 65.7656C28.7344 66 28.3594 66.0703 27.9844 66.0703C27.5625 66.0703 27.1875 65.9766 26.8594 65.8594C26.5312 65.7656 26.2266 65.6484 26.0156 65.6484C25.9687 65.6484 25.9219 65.6484 25.875 65.6719C29.9531 64.5938 26.9766 58.9219 23.6016 58.9219C23.5312 58.9219 23.4375 58.9219 23.3672 58.9219C23.1094 56.4609 21.8437 57.3984 21.7031 55.3594C21.4922 55.4766 21.2813 55.5234 21.0703 55.5234C20.5078 55.5234 19.9922 55.125 19.5469 54.75C19.1016 54.3516 18.7266 53.9766 18.3984 53.9766C18.1406 53.9766 17.9062 54.2344 17.6953 54.9844C17.9297 53.8359 17.8594 53.4609 17.625 53.4609C17.3906 53.4609 16.9688 53.8594 16.5 54.2578C16.0547 54.6563 15.5391 55.0547 15.1406 55.0547C15.0937 55.0547 15.0703 55.0547 15.0234 55.0547C12.2812 53.1094 15.0469 49.6641 13.5938 47.0156C14.5312 46.0078 14.9062 44.2969 14.4844 44.2969C14.2734 44.2969 13.8516 44.7187 13.1953 45.8672C12.2578 43.4766 14.7422 38.0625 16.8516 37.7578C16.9219 37.7578 16.9687 37.7344 17.0391 37.7344C17.4141 37.7344 17.7891 37.9219 18.1172 38.3203C18.3047 39.4219 17.8359 41.7422 18.0234 41.7422C18.1172 41.7422 18.3047 41.2734 18.7734 40.0547C19.3828 37.2656 23.6484 35.25 24.0938 33.5391C24.1172 33.5625 24.1172 33.5625 24.1406 33.5625C24.6328 33.5625 27.7969 30.7734 29.1797 30.4688C29.7187 29.9297 30.0938 29.7422 30.375 29.7422C30.6797 29.7422 30.8438 29.9766 30.9609 30.1875C31.0781 30.4219 31.1719 30.6328 31.2891 30.6328C31.3828 30.6328 31.5 30.4922 31.7109 30.0937C30.9844 28.6641 32.8594 27.3047 32.3438 27.3047C32.1562 27.3047 31.5937 27.4922 30.4453 27.9609C30.2578 28.0547 30.1641 28.0781 30.1172 28.0781C29.9766 28.0781 30.5391 27.7031 31.3594 27.3281C32.1797 26.9531 33.2109 26.5781 34.0781 26.5781C34.5 26.5781 34.875 26.6719 35.1562 26.9063C38.7891 26.0391 36.7969 24.8438 36.9844 24.8438C36.9844 24.8438 37.0078 24.8438 37.0312 24.8438C38.0625 24.2344 37.7578 21.9375 39.2813 20.5078ZM23.0391 30.0937C22.9922 30.0937 23.2031 29.7891 23.9062 28.9219C25.3594 27.8438 26.5312 27.1172 25.1953 26.4141C25.7812 26.1562 26.3437 25.8516 26.8828 25.5234C26.8594 26.6719 25.8984 29.4609 25.3828 29.4609C25.2656 29.4609 25.1484 29.2969 25.1016 28.9453C25.4062 28.4063 25.4297 28.1953 25.3125 28.1953C25.125 28.1953 24.5859 28.6641 24.0703 29.1563C23.5547 29.6016 23.0859 30.0937 23.0391 30.0937ZM24.375 30.7266C23.7422 30.7266 23.8594 30.3281 25.8047 29.9297C26.6484 29.8125 25.9922 29.8594 27 29.625C26.0156 30.4219 24.9141 30.7266 24.375 30.7266ZM60.8203 28.3594C61.1016 28.3125 61.3125 28.3125 61.4766 28.3125C62.1562 28.3125 61.8516 28.5937 61.4531 28.875C61.0547 29.1562 60.5625 29.4375 60.8438 29.4375C61.0078 29.4375 61.4531 29.3437 62.3672 29.0859C66.9844 28.7578 60.5625 24.8438 61.5937 23.5313L61.3125 23.4375C59.4141 25.8516 62.5781 25.8984 60.8203 28.3594ZM58.8984 28.4531C59.2266 28.4531 59.6484 28.0781 60.0937 27.0234C60.7031 26.2969 60.4453 26.2031 59.7891 25.8516C57.9844 26.3203 58.1484 28.4531 58.8984 28.4531ZM75.0703 35.8828C75 35.8828 74.9531 35.9063 74.9063 35.9297C75.0938 35.9766 75.2812 36.0234 75.4688 36.0234C75.2812 35.9297 75.1641 35.8828 75.0703 35.8828ZM106.547 41.7188C106.945 42.5859 107.156 42.9375 107.18 42.9375C107.344 42.9375 104.227 35.3438 102.938 33.9844C96.2109 22.9219 85.1484 14.4609 72.5391 11.2969H72.5156C72.1875 11.2969 72.5625 11.4609 73.0078 11.625C73.4531 11.7891 73.9922 11.9531 73.9922 11.9531C73.9922 11.9531 73.6406 11.8359 72.5625 11.5313C71.3672 11.1797 70.1484 10.9219 68.9062 10.8281C68.6953 10.8984 74.0391 13.0078 77.625 14.1094C76.4297 13.7344 75.1875 13.4063 74.8828 13.4063C74.6719 13.4063 74.8828 13.5469 75.75 13.9219C74.6953 13.6172 74.25 13.4766 74.2031 13.4766C74.1328 13.4766 75.6094 13.9688 76.9922 14.4609C78.3984 14.9531 79.7344 15.4453 79.3594 15.4453C79.2656 15.4453 79.0078 15.3984 78.6094 15.3281C79.8047 15.9844 80.2266 16.2422 80.1562 16.2422C80.0391 16.2422 78.5625 15.5391 77.0391 14.8359C75.5391 14.1328 74.0156 13.4297 73.8047 13.4297C73.6875 13.4297 73.9922 13.6641 75.0234 14.2734C76.4297 14.8828 77.8359 15.4922 77.4375 15.4922C77.25 15.4922 76.7109 15.375 75.6562 15.0703C78 16.2656 73.9922 15.7969 75.3516 17.4141C74.6016 16.7109 74.2969 16.4766 74.2266 16.4766C74.1563 16.4766 74.3437 16.7578 74.5312 17.0391C74.7188 17.3203 74.8594 17.6016 74.6953 17.6016C74.6719 17.6016 74.6719 17.6016 74.6484 17.6016C76.2891 19.3828 73.5 17.7891 75.4922 19.3828C73.9922 18.7031 71.4375 17.5781 72.5859 17.5781C72.8672 17.5781 73.4062 17.6484 74.25 17.8359C72.7266 16.0547 68.4141 15.9844 68.3203 15.7734C67.2422 15.8438 67.2188 16.6641 67.4063 18.1641C67.3828 20.5313 65.0625 20.5781 65.3672 21.9375C65.3672 21.9141 65.3906 21.9141 65.3906 21.9141C65.4375 21.9141 65.4609 22.3828 65.6016 22.875C65.7656 23.3437 66.0469 23.8359 66.6562 23.8359C66.9844 23.8359 67.4062 23.6953 67.9219 23.3437C68.6484 24.6562 69.3047 25.125 69.8203 25.125C70.5937 25.125 71.0625 24.0703 71.0156 23.1094C70.1719 22.6406 69.0703 18.75 70.2891 18.75C70.4766 18.75 70.7109 18.8438 71.0156 19.0547C69.1172 23.7188 78.5156 20.6016 73.1953 22.7344C74.3906 24.3047 72.4453 24.2344 73.0078 26.1328C72.0937 26.3906 71.0859 26.625 70.1953 26.625C68.8828 26.625 67.875 26.0625 67.9922 24.0938C66.3516 24.9609 69.6328 27.8906 66.375 27.8906H66.1875C64.6172 30.7734 58.7344 29.7891 63.3516 32.8359C63.6094 34.1719 62.7656 34.4063 61.6875 34.4063C61.4063 34.4063 61.1016 34.3828 60.7969 34.3594C60.4922 34.3359 60.1875 34.3359 59.9063 34.3359C58.6875 34.3359 57.8203 34.6406 58.5703 36.5391C58.0312 38.5078 59.2969 39.375 60.8438 39.375C62.7188 39.375 65.0156 38.1562 65.1797 36.1406C66.1875 34.6172 67.4766 33.9844 68.8125 33.9844C70.9219 33.9844 73.1484 35.5781 74.6016 37.5469C74.7187 37.7344 74.8125 37.8047 74.8594 37.8047C74.9766 37.8047 74.8594 37.3359 74.8125 36.8672C74.7656 36.4922 74.7656 36.1172 74.9063 36C72.8203 35.4141 71.2266 32.8828 71.9297 32.8828C72.1641 32.8828 72.6562 33.1641 73.4531 33.9141C73.5 33.9141 73.5469 33.9141 73.5703 33.9141C74.8828 33.9141 75.9141 34.9453 76.7109 35.9766C77.5312 37.0078 78.1406 38.0391 78.6797 38.0391C78.8906 38.0391 79.1016 37.8516 79.2891 37.4297C79.1953 37.2891 78.9609 36.8906 78.8437 36.4922C78.7031 36 78.7031 35.5078 79.3359 35.5078C79.5938 35.5078 79.9453 35.6016 80.4375 35.7891C82.0313 35.3672 79.4297 31.2187 81.5391 31.2187C81.75 31.2187 82.0078 31.2656 82.3359 31.3594C82.3125 32.0859 82.6406 32.3438 82.9453 32.3438C83.5547 32.3438 84.1641 31.4766 82.6875 31.2187C83.25 30.6797 83.5781 30.4688 83.8125 30.4688C84.6328 30.4688 83.9766 33.1875 86.8125 33.1875C87.7734 35.4609 78.4688 33.3516 81.4453 37.7109C82.125 38.2031 82.9688 38.2969 83.7891 38.2969C84.0469 38.2969 84.2813 38.2969 84.5156 38.2734C84.75 38.2734 84.9844 38.25 85.1953 38.25C86.6484 38.25 87.6797 38.6016 87.0469 41.6016C86.2734 42.1641 85.4063 42.3516 84.5156 42.3516C83.7188 42.3516 82.9219 42.2109 82.1484 42.0703C81.375 41.9297 80.625 41.7891 79.9453 41.7891C78.8906 41.7891 78.0469 42.1406 77.5312 43.3594C74.7891 42.2344 71.1797 42.1875 71.5313 38.7891C66.75 39.4688 61.7578 39.1172 58.2422 42.0469C58.0313 46.3359 50.6719 47.7187 52.4531 52.5937C50.3203 57.0937 55.0313 63.3984 59.8359 63.3984C60 63.3984 60.1875 63.3984 60.3516 63.375C62.9766 63.3516 65.625 62.1797 67.9453 62.1797C69.1406 62.1797 70.2188 62.4844 71.1563 63.4219C71.3672 63.3984 71.5547 63.375 71.7188 63.375C75.3047 63.375 70.5703 69.0703 74.8594 70.0312C78.75 74.0625 72.4687 78.2109 75.5391 82.0781C75.8672 85.1016 77.3672 87.6328 77.3672 90.5859C77.7656 90.6328 78.1406 90.6562 78.5391 90.6562C83.4844 90.6562 86.5781 86.3437 89.4844 83.0859C88.5937 78.2109 96.3984 77.25 93.7266 71.7891C92.4844 65.8125 99.6094 62.2734 99.2109 56.2969C99.2812 55.4531 99.0469 55.1953 98.6953 55.1953C98.3438 55.1953 97.8281 55.4531 97.3359 55.6875C96.8203 55.9453 96.2578 56.1797 95.8125 56.1797C95.2266 56.1797 94.7813 55.7812 94.7344 54.4687C91.2891 51.2578 89.7188 46.8984 86.5078 43.3594C90.6797 45.375 93.0469 49.9219 94.9688 54.0469C95.1328 54.0938 95.2969 54.1172 95.4844 54.1172C98.8828 54.1172 103.617 45.9844 98.4609 44.0156C98.1797 44.7891 97.8047 45.0703 97.3594 45.0703C96.5859 45.0703 95.6953 44.1328 95.0625 43.2187C94.4297 42.2812 94.1016 41.3437 94.4531 41.3437C94.6875 41.3437 95.2031 41.7187 96.0938 42.7031C97.1016 43.3359 98.0859 43.5 99.1172 43.5C100.125 43.5 101.156 43.3359 102.234 43.2422C103.594 43.7812 104.18 45.5156 104.602 45.5156C104.672 45.5156 104.766 45.4453 104.836 45.2812C105.914 47.8594 107.156 52.4531 108.281 53.6953C107.695 49.7578 107.555 45.5859 106.547 41.7188ZM93.4687 36.3047C90.8203 35.625 89.9531 32.3437 87.8672 30.4453C87.8437 29.9297 88.6172 30.0234 88.4297 29.1563C91.2422 30.0234 90.3281 30.8906 90.0703 31.0547C91.1016 32.7656 93.9844 33.9375 93.4687 36.3047ZM57.0703 18.4688C54.5156 19.2188 54.1641 18.3984 54.6094 19.9687C54.7969 20.1094 55.1484 20.1562 55.5 20.1562C56.7422 20.1797 58.4297 19.4531 57.0703 18.4688ZM94.5938 83.0391C97.9453 80.2031 98.3672 76.8281 98.5312 73.4063C97.0312 76.3359 92.5781 79.5703 94.5938 83.0391ZM79.3359 37.3359C79.3125 37.3594 79.3125 37.3594 79.3125 37.3828C79.3359 37.4297 79.3594 37.4297 79.3594 37.4297C79.3594 37.4297 79.3594 37.4063 79.3359 37.3359ZM60 0C26.8594 0 0 26.8594 0 60C0 93.1406 26.8594 120 60 120C93.1406 120 120 93.1406 120 60C120 26.8594 93.1406 0 60 0ZM60 115.383C29.4141 115.383 4.61719 90.5859 4.61719 60C4.61719 29.4141 29.4141 4.61719 60 4.61719C90.5859 4.61719 115.383 29.4141 115.383 60C115.383 90.5859 90.5859 115.383 60 115.383Z" fill="#E9322E"/>
</svg>
