<svg width="120" height="120" viewBox="0 0 120 120" fill="none" xmlns="http://www.w3.org/2000/svg">
<path d="M28.3594 3.98438V11.0156H91.6406V3.98438H28.3594ZM32.1094 15.2344V26.0156H39.1406V15.2344H32.1094ZM80.8594 15.2344V26.0156H87.8906V15.2344H80.8594ZM28.3594 30.2344V37.2656H91.6406V30.2344H28.3594ZM32.1094 41.4844V52.2656H39.1406V41.4844H32.1094ZM80.8594 41.4844V52.2656H87.8906V41.4844H80.8594ZM28.3594 56.4844V63.5156H91.6406V56.4844H28.3594ZM32.1094 67.7344V78.5156H39.1406V67.7344H32.1094ZM80.8594 67.7344V78.5156H87.8906V67.7344H80.8594ZM28.3594 82.7344V89.7656H91.6406V82.7344H28.3594ZM32.1094 93.9844V104.766H39.1406V93.9844H32.1094ZM80.8594 93.9844V104.766H87.8906V93.9844H80.8594ZM28.3594 108.984V116.016H91.6406V108.984H28.3594Z" fill="#E9322E"/>
</svg>
