<svg width="120" height="120" viewBox="0 0 120 120" fill="none" xmlns="http://www.w3.org/2000/svg">
<g clip-path="url(#clip0_807_702)">
<path d="M23.4522 20.2434C22.9516 18.2674 20.9434 17.072 18.9674 17.572C16.9906 18.073 15.7948 20.081 16.2956 22.0576L40.4127 117.214C40.8364 118.887 42.3391 120 43.9884 120C44.289 120 44.594 119.963 44.8986 119.886C46.8743 119.385 48.0706 117.377 47.5698 115.401L23.4522 20.2434Z" fill="#E9322E"/>
<path d="M103.728 47.045C99.7979 32.5322 95.8637 18.0204 91.9325 3.50762C91.5064 1.93669 90.7594 0.251622 87.9514 0.0830888C65.848 -1.51771 51.3344 20.4943 29.2306 18.8932C27.4864 18.6783 26.3653 19.5866 26.7912 21.1575C30.7227 35.67 34.6237 50.1914 38.5867 64.6951C39.2227 67.0228 40.8235 67.9044 42.5683 68.1196C64.6714 69.7207 79.1856 47.7087 101.29 49.3098C103.034 49.5242 104.154 48.6162 103.728 47.045ZM86.3826 5.56176C87.4669 9.56575 88.5528 13.5695 89.637 17.5735C84.9874 17.7266 80.8837 18.6647 76.5352 20.2943C75.4512 16.2903 74.3653 12.2863 73.2813 8.28255C77.6293 6.65349 81.733 5.71456 86.3826 5.56176ZM40.8349 50.4524C39.6011 45.9034 38.3693 41.3532 37.1368 36.8039C42.0242 36.6623 46.361 35.6031 50.8973 33.81C49.812 29.806 48.7272 25.802 47.6429 21.798C52.0773 19.8159 56.26 17.4428 60.4488 14.9919C61.533 18.9956 62.6189 22.9996 63.7034 27.0036C59.5144 29.4543 55.3314 31.8282 50.8973 33.81C52.1301 38.3594 53.3624 42.9092 54.5949 47.4586C50.0584 49.2514 45.7221 50.3106 40.8349 50.4524ZM57.8973 59.6463C56.7962 55.5839 55.6957 51.521 54.5949 47.458C58.9984 45.4908 63.1514 43.1378 67.3104 40.7042C68.4112 44.7671 69.512 48.8298 70.6125 52.8927C66.4541 55.3266 62.3005 57.6791 57.8973 59.6463ZM67.4002 40.6519C66.1685 36.1023 64.9357 31.5527 63.7034 27.0031C67.8917 24.5578 72.0776 22.2178 76.5352 20.2946C77.7683 24.8439 79.0008 29.3935 80.233 33.9428C75.7762 35.8666 71.589 38.2063 67.4002 40.6519ZM83.6123 46.1002C82.5112 42.0378 81.4107 37.9748 80.3096 33.9119C84.6325 32.2999 88.7152 31.373 93.3344 31.2223C94.4354 35.2852 95.5363 39.3479 96.6373 43.4103C92.0179 43.5612 87.9347 44.4879 83.6123 46.1002Z" fill="#E9322E"/>
</g>
<defs>
<clipPath id="clip0_807_702">
<rect width="120" height="120" fill="white"/>
</clipPath>
</defs>
</svg>
