<svg width="120" height="120" viewBox="0 0 120 120" fill="none" xmlns="http://www.w3.org/2000/svg">
<path d="M63.545 4.17504V38.2911H79.2336V8.08605C74.404 5.69848 69.0148 4.3998 63.545 4.1748V4.17504ZM59.165 4.22613C53.8287 4.56949 48.5595 5.93824 43.8064 8.29863V38.2916H59.165V4.2259V4.22613ZM83.6133 10.6642V38.2911H98.108C97.4846 26.9779 93.0614 18.7173 86.7043 13.0888C85.7199 12.2169 84.6886 11.4083 83.6133 10.6642ZM39.4266 10.8547C38.1797 11.7055 36.9884 12.636 35.8594 13.6452C29.506 19.3248 25.1016 27.4623 24.4557 38.2909H39.4264V10.8545L39.4266 10.8547ZM102.693 33.6622V38.2325H107.578V33.6622H102.693V33.6622ZM102.693 42.6125V42.6711H19.8704V50.1711H102.693V50.2077H107.578V42.6123H102.693V42.6125ZM24.375 54.5509V85.1075H39.4266V78.9482C38.9222 79.033 38.408 79.0794 37.8809 79.0794C32.7458 79.0794 28.5352 74.8689 28.5352 69.7339C28.5352 64.5995 32.7455 60.3885 37.8809 60.3885C38.4083 60.3885 38.9222 60.4353 39.4264 60.5204V54.5509H24.375V54.5509ZM43.8061 54.5509V62.5267C45.8904 64.2456 47.2266 66.8415 47.2266 69.7337C47.2266 72.6259 45.8907 75.2228 43.8061 76.9407V85.1075H59.1647V54.5509H43.8061ZM63.5452 54.5509V85.1075H79.2336V54.5509H63.545H63.5452ZM83.6133 54.5509V85.1075H98.1811V54.5509H83.6133ZM102.693 54.5875V58.7917H107.578V54.5875H102.693ZM37.8811 64.7682C35.1132 64.7682 32.9147 66.9667 32.9147 69.7339C32.9147 72.5019 35.1127 74.7003 37.8811 74.7003C40.6491 74.7003 42.8466 72.5019 42.8466 69.7339C42.8466 66.966 40.6491 64.7685 37.8809 64.7685L37.8811 64.7682ZM102.693 80.4784V85.1441H107.578V80.4789H102.693V80.4784ZM19.8704 89.4875V96.9875H102.693V97.0243H107.578V89.5243H103.249V89.4873H19.8704V89.4875ZM24.375 101.367V115.393H39.4266V101.367H24.375ZM43.8061 101.367V115.393H59.1647V101.367H43.8061ZM63.5452 101.367V115.393H79.2336V101.367H63.545H63.5452ZM83.6133 101.367V115.393H98.1811V101.367H83.6133ZM102.693 101.404V105.608H107.578V101.404H102.693Z" fill="#E9322E"/>
</svg>
