<svg width="120" height="120" viewBox="0 0 120 120" fill="none" xmlns="http://www.w3.org/2000/svg">
<path d="M90.9563 4.80012C90.5343 4.81451 90.1235 4.93997 89.7655 5.16383C89.4075 5.38769 89.1149 5.70203 88.9172 6.07512L86.5078 10.6126C86.268 11.0642 86.1787 11.5806 86.2529 12.0865C86.3271 12.5924 86.561 13.0614 86.9203 13.4251L92.4563 19.0314L83.9531 39.0704C79.5591 37.0139 75.3029 36.0001 72 36.0001C68.5445 36.0001 66.1062 38.3079 63.8813 40.1532C62.7688 41.0759 61.7449 41.9591 60.9516 42.5392C60.39 42.9498 59.9178 43.1039 59.8547 43.1626C59.8244 43.1388 58.913 42.9754 57.7453 42.5767C56.4976 42.1507 54.9503 41.5588 53.3484 40.9548C50.1446 39.7469 47.0602 38.4001 44.1891 38.4001C41.6436 38.4001 39.2319 39.4645 36.8344 40.8939C36.609 40.8289 36.3752 40.7973 36.1406 40.8001H16.8C16.3854 40.8004 15.9779 40.908 15.6173 41.1126C15.2567 41.3171 14.9552 41.6116 14.7422 41.9673L0.389063 65.8876C0.377871 65.9062 0.366933 65.925 0.35625 65.9439L0.342188 65.9673C0.334205 65.9828 0.326392 65.9985 0.31875 66.0142C0.295708 66.0542 0.273824 66.0948 0.253125 66.1361C0.234973 66.1731 0.21778 66.2106 0.201563 66.2486C0.17947 66.2994 0.159145 66.351 0.140625 66.4032C0.115244 66.4756 0.0933437 66.5491 0.075 66.6236C0.0718171 66.6329 0.0686921 66.6423 0.065625 66.6517C0.0484172 66.7213 0.0343405 66.7917 0.0234375 66.8626C0.0234131 66.8689 0.0234131 66.8751 0.0234375 66.8814C0.0136615 66.956 0.00740463 67.0311 0.0046875 67.1064C0.00251405 67.1376 0.000951255 67.1688 0 67.2001L0 79.2001C6.36405e-05 79.8366 0.25294 80.447 0.703014 80.8971C1.15309 81.3472 1.7635 81.6001 2.4 81.6001H4.8V108C4.80006 108.637 5.05294 109.247 5.50301 109.697C5.95309 110.147 6.5635 110.4 7.2 110.4H112.8C113.437 110.4 114.047 110.147 114.497 109.697C114.947 109.247 115.2 108.637 115.2 108V81.6001H117.6C118.237 81.6001 118.847 81.3472 119.297 80.8971C119.747 80.447 120 79.8366 120 79.2001V67.2001C119.999 67.1767 119.997 67.1532 119.995 67.1298C119.993 67.0514 119.987 66.9732 119.977 66.8954C119.977 66.8939 119.977 66.8923 119.977 66.8907C119.977 66.8876 119.977 66.8845 119.977 66.8814C119.966 66.8042 119.952 66.7275 119.934 66.6517C119.917 66.5821 119.897 66.5132 119.873 66.4454C119.872 66.4376 119.87 66.4298 119.869 66.422C119.864 66.4126 119.859 66.4032 119.855 66.3939C119.832 66.3288 119.807 66.2646 119.78 66.2017C119.756 66.1508 119.731 66.1008 119.705 66.0517C119.693 66.0296 119.68 66.0077 119.667 65.9861C119.664 65.9798 119.661 65.9735 119.658 65.9673C119.634 65.9259 119.609 65.8853 119.583 65.8454L105.258 41.9673C105.045 41.6116 104.743 41.3171 104.383 41.1126C104.022 40.908 103.615 40.8004 103.2 40.8001H88.4344L96.8906 20.8689L105.516 21.1829C105.986 21.2 106.451 21.0784 106.852 20.8334C107.254 20.5884 107.575 20.2307 107.775 19.8048L110.17 14.7095C110.311 14.4108 110.388 14.0864 110.398 13.7566C110.407 13.4267 110.348 13.0984 110.225 12.7922C110.102 12.486 109.917 12.2086 109.682 11.9771C109.446 11.7456 109.166 11.5652 108.858 11.447L91.8984 4.9595C91.5982 4.84376 91.2778 4.78956 90.9563 4.80012V4.80012ZM92.1656 10.2001L104.728 15.0048L104.105 16.3267L96.2531 16.0407L91.575 11.3064L92.1656 10.2001ZM72 40.8001C74.6767 40.8001 79.543 41.9796 84.1453 44.5454C88.7476 47.1112 93.1384 50.9962 95.6016 56.222C95.7288 56.5179 95.9142 56.7851 96.1469 57.0079C96.3796 57.2306 96.6547 57.4042 96.9558 57.5184C97.257 57.6325 97.578 57.6849 97.8999 57.6724C98.2217 57.6599 98.5377 57.5828 98.8291 57.4456C99.1205 57.3084 99.3813 57.1139 99.596 56.8738C99.8107 56.6337 99.9748 56.3529 100.079 56.048C100.183 55.7431 100.224 55.4205 100.201 55.0992C100.177 54.778 100.089 54.4648 99.9422 54.1782C98.3528 50.8063 96.1434 47.9702 93.6422 45.6001H101.841L113.363 64.8001H6.6375L18.1594 45.6001H30.4031C29.6849 46.2069 28.946 46.8032 28.2656 47.4189C23.4963 51.7347 19.7859 56.0298 19.7859 56.0298C19.5693 56.2664 19.4023 56.5441 19.2948 56.8464C19.1874 57.1487 19.1416 57.4694 19.1602 57.7897C19.1788 58.11 19.2614 58.4233 19.4031 58.7111C19.5449 58.9989 19.7429 59.2553 19.9854 59.4653C20.228 59.6753 20.5102 59.8345 20.8153 59.9335C21.1205 60.0326 21.4424 60.0694 21.762 60.042C22.0817 60.0145 22.3925 59.9232 22.6763 59.7735C22.96 59.6238 23.2109 59.4187 23.4141 59.1704C23.4141 59.1704 26.9726 55.0655 31.4859 50.9814C33.7426 48.9393 36.2347 46.9132 38.5453 45.4548C40.8559 43.9964 43.0106 43.2001 44.1891 43.2001C44.9396 43.2001 48.4947 44.2534 51.6563 45.4454C53.2371 46.0415 54.8056 46.6496 56.1938 47.1236C57.5819 47.5975 58.6088 48.0001 60 48.0001C61.77 48.0001 62.7298 47.181 63.7828 46.4111C64.8359 45.6411 65.8844 44.7243 66.9422 43.847C69.0577 42.0924 71.3515 40.8001 72 40.8001ZM74.9953 48.0704C74.3588 48.0704 73.7483 48.3233 73.2983 48.7734C72.8482 49.2235 72.5953 49.8339 72.5953 50.4704C72.5953 51.107 72.8482 51.7174 73.2983 52.1675C73.7483 52.6176 74.3588 52.8704 74.9953 52.8704C75.6318 52.8704 76.2423 52.6176 76.6924 52.1675C77.1425 51.7174 77.3953 51.107 77.3953 50.4704C77.3953 49.8339 77.1425 49.2235 76.6924 48.7734C76.2423 48.3233 75.6318 48.0704 74.9953 48.0704ZM43.7953 50.4704C43.1588 50.4704 42.5483 50.7233 42.0983 51.1734C41.6482 51.6235 41.3953 52.2339 41.3953 52.8704C41.3953 53.507 41.6482 54.1174 42.0983 54.5675C42.5483 55.0176 43.1588 55.2704 43.7953 55.2704C44.4318 55.2704 45.0423 55.0176 45.4924 54.5675C45.9425 54.1174 46.1953 53.507 46.1953 52.8704C46.1953 52.2339 45.9425 51.6235 45.4924 51.1734C45.0423 50.7233 44.4318 50.4704 43.7953 50.4704ZM65.3953 52.8704C64.7588 52.8704 64.1483 53.1233 63.6983 53.5734C63.2482 54.0235 62.9953 54.6339 62.9953 55.2704C62.9953 55.907 63.2482 56.5174 63.6983 56.9675C64.1483 57.4176 64.7588 57.6704 65.3953 57.6704C66.0318 57.6704 66.6423 57.4176 67.0924 56.9675C67.5425 56.5174 67.7953 55.907 67.7953 55.2704C67.7953 54.6339 67.5425 54.0235 67.0924 53.5734C66.6423 53.1233 66.0318 52.8704 65.3953 52.8704ZM82.1953 52.8704C81.5588 52.8704 80.9483 53.1233 80.4983 53.5734C80.0482 54.0235 79.7953 54.6339 79.7953 55.2704C79.7953 55.907 80.0482 56.5174 80.4983 56.9675C80.9483 57.4176 81.5588 57.6704 82.1953 57.6704C82.8318 57.6704 83.4423 57.4176 83.8924 56.9675C84.3425 56.5174 84.5953 55.907 84.5953 55.2704C84.5953 54.6339 84.3425 54.0235 83.8924 53.5734C83.4423 53.1233 82.8318 52.8704 82.1953 52.8704ZM4.8 69.6001H115.2V76.8001H112.8H7.2H4.8V69.6001ZM9.6 81.6001H110.4V105.6H9.6V81.6001Z" fill="#E9322E"/>
</svg>
