<svg width="120" height="120" viewBox="0 0 120 120" fill="none" xmlns="http://www.w3.org/2000/svg">
<path d="M6.65095 66.6507H9.74874C12.7309 89.295 30.705 107.269 53.3493 110.251V113.349C53.3493 117.022 56.3276 120 60 120C63.6727 120 66.6505 117.022 66.6505 113.349V110.251C89.2951 107.269 107.269 89.2964 110.251 66.6507H113.349C117.022 66.6507 120 63.6724 120 59.9998C120 56.3273 117.022 53.3491 113.349 53.3491H110.251C107.269 30.7047 89.2949 12.7307 66.6505 9.7485V6.6507C66.6505 2.97826 63.6727 0 60 0C56.3276 0 53.3493 2.97826 53.3493 6.6507V9.7485C30.705 12.7309 12.7309 30.7036 9.74874 53.3493H6.65095C2.9785 53.3493 0.000244153 56.3276 0.000244153 60C2.68092e-05 63.6725 2.97828 66.6507 6.65095 66.6507ZM53.3493 23.2044V41.5617C55.4282 40.8114 57.6616 40.3804 60 40.3804C62.3384 40.3804 64.5718 40.8114 66.6505 41.5617V23.2044C81.95 25.9632 94.0371 38.0501 96.7958 53.3493H78.4383C79.1884 55.4284 79.6194 57.6616 79.6194 60C79.6194 62.3386 79.1886 64.5718 78.4383 66.6509H96.7958C94.0371 81.9504 81.9497 94.0373 66.6505 96.7958V78.4385C64.5718 79.1888 62.3384 79.6198 60 79.6198C57.6616 79.6198 55.4282 79.189 53.3493 78.4385V96.7958C38.0501 94.0373 25.963 81.9501 23.2042 66.6509H41.5615C40.8112 64.572 40.3802 62.3386 40.3802 60C40.3802 57.6618 40.8099 55.4284 41.5615 53.3493H23.2042C25.9632 38.0501 38.0501 25.9632 53.3493 23.2044Z" fill="#E9322E"/>
<path d="M60.0002 68.3133C64.5915 68.3133 68.3135 64.5913 68.3135 59.9999C68.3135 55.4086 64.5915 51.6865 60.0002 51.6865C55.4088 51.6865 51.6868 55.4086 51.6868 59.9999C51.6868 64.5913 55.4088 68.3133 60.0002 68.3133Z" fill="#E9322E"/>
</svg>
