<svg width="120" height="120" viewBox="0 0 120 120" fill="none" xmlns="http://www.w3.org/2000/svg">
<path d="M70 40C72.6522 40 75.1957 38.9464 77.0711 37.0711C78.9464 35.1957 80 32.6522 80 30C80 27.3478 78.9464 24.8043 77.0711 22.9289C75.1957 21.0536 72.6522 20 70 20C67.3478 20 64.8043 21.0536 62.9289 22.9289C61.0536 24.8043 60 27.3478 60 30C60 32.6522 61.0536 35.1957 62.9289 37.0711C64.8043 38.9464 67.3478 40 70 40ZM75 75H85C88.9782 75 92.7936 76.5804 95.6066 79.3934C98.4196 82.2065 100 86.0218 100 90V110H20V90C20 86.0218 21.5804 82.2065 24.3934 79.3934C27.2064 76.5804 31.0218 75 35 75H65V49.37C60.2976 48.1414 56.203 45.2432 53.481 41.2166C50.759 37.1901 49.5955 32.3105 50.2078 27.4889C50.8202 22.6673 53.1665 18.2334 56.8086 15.0151C60.4507 11.7969 65.1397 10.0142 70 10C74.8713 9.9952 79.5769 11.7684 83.2336 14.9869C86.8903 18.2053 89.2467 22.6477 89.8604 27.4802C90.4741 32.3127 89.303 37.2031 86.567 41.2335C83.8309 45.2638 79.7179 48.157 75 49.37V75ZM30 100H90V90C90 88.6739 89.4732 87.4022 88.5355 86.4645C87.5979 85.5268 86.3261 85 85 85H35C33.6739 85 32.4021 85.5268 31.4645 86.4645C30.5268 87.4022 30 88.6739 30 90V100ZM42.5 70H52.5C54.4891 70 56.3968 70.7902 57.8033 72.1967C59.2098 73.6032 60 75.5109 60 77.5C60 79.4891 59.2098 81.3968 57.8033 82.8033C56.3968 84.2098 54.4891 85 52.5 85H42.5C40.5109 85 38.6032 84.2098 37.1967 82.8033C35.7902 81.3968 35 79.4891 35 77.5C35 75.5109 35.7902 73.6032 37.1967 72.1967C38.6032 70.7902 40.5109 70 42.5 70V70Z" fill="#E9322E"/>
</svg>
