<svg width="120" height="120" viewBox="0 0 120 120" fill="none" xmlns="http://www.w3.org/2000/svg">
<path d="M82.2683 36.6008C91.6687 36.6008 99.316 28.9535 99.316 19.5531C99.316 10.1527 91.6687 2.50537 82.2683 2.50537C72.8685 2.50537 65.2212 10.1527 65.2212 19.5531C65.2212 28.9535 72.8685 36.6008 82.2683 36.6008ZM82.2683 11.2674C86.8371 11.2674 90.554 14.9843 90.554 19.5531C90.554 24.1219 86.8371 27.8388 82.2683 27.8388C77.6995 27.8388 73.9832 24.1219 73.9832 19.5531C73.9832 14.9843 77.6995 11.2674 82.2683 11.2674Z" fill="#E9322E"/>
<path d="M118.739 44.3221C117.041 42.5991 114.267 42.5778 112.544 44.277C112.443 44.3784 100.767 53.6793 66.0184 38.8277C50.9891 32.4045 38.9044 31.7987 30.0992 37.0258C19.3507 43.4064 18.0333 55.9486 17.9826 56.4793C17.7529 58.8783 19.506 61.0005 21.9036 61.2434C22.0526 61.2584 22.2009 61.2659 22.3474 61.2659C24.561 61.2659 26.4624 59.5855 26.7021 57.338C26.7115 57.251 27.7128 48.581 34.6392 44.5205C40.8177 40.898 50.4784 41.7154 62.5737 46.885C78.9906 53.9008 91.0684 56.0694 99.7315 56.0688C112.464 56.0682 117.816 51.3824 118.694 50.5174C120.417 48.8189 120.437 46.0451 118.739 44.3221Z" fill="#E9322E"/>
<path d="M63.0646 57.7397C61.3954 55.9948 58.6304 55.9291 56.8805 57.5926C35.9274 77.5086 3.99428 107.756 1.70176 109.647C-0.189577 111.108 -0.561962 113.823 0.87751 115.742C1.73806 116.889 3.05362 117.494 4.38544 117.494C5.29982 117.494 6.22296 117.208 7.01091 116.617C9.00614 115.12 44.5699 81.3752 59.7513 66.9516L80.8652 89.0256C81.8015 90.0045 81.4904 91.0753 81.3127 91.4903C81.1356 91.9052 80.5773 92.8703 79.223 92.8703H50.3215C47.9019 92.8703 45.9405 94.8317 45.9405 97.2513C45.9405 99.6709 47.9019 101.632 50.3215 101.632H79.2223C83.716 101.632 87.6044 99.065 89.3693 94.9331C91.1349 90.8006 90.3025 86.2168 87.1964 82.9698L63.0646 57.7397Z" fill="#E9322E"/>
</svg>
