<svg width="120" height="120" viewBox="0 0 120 120" fill="none" xmlns="http://www.w3.org/2000/svg">
<path d="M58.5 13.5C32.8125 13.5 12 34.3125 12 60C12 85.6875 32.8125 106.5 58.5 106.5C84.1875 106.5 105 85.6875 105 60C105 55.2413 104.284 50.6512 102.956 46.3294L114.941 56.2612L120 44.5294L101.587 42.4875C101.466 42.1875 101.342 41.8894 101.212 41.5931L119.004 34.0125L111.562 23.5575L100.236 39.4781C92.6569 24.0863 76.8187 13.5 58.5 13.5ZM35.9981 60C35.9981 58.2562 36.7669 56.7188 37.9669 55.6125L32.1544 53.8688C30.5606 53.4 29.6606 51.7125 30.1481 50.1375C30.6169 48.5437 32.2856 47.6625 33.8794 48.1312L48.8794 52.6312C50.4731 53.1 51.3731 54.7875 50.8856 56.3625C50.4919 57.6563 49.3106 58.5 48.0169 58.5C47.9231 58.5 47.8106 58.4625 47.6981 58.4625C47.8294 58.9688 48.0169 59.4562 48.0169 60C48.0169 63.3188 45.3356 66 42.0169 66C38.6981 66 35.9981 63.3188 35.9981 60V60ZM83.3625 53.8688L77.55 55.6125C78.7313 56.7 79.5188 58.2562 79.5188 60C79.5188 63.3188 76.8375 66 73.5188 66C70.2 66 67.5188 63.3188 67.5188 60C67.5188 59.4562 67.6875 58.95 67.8375 58.4625C67.725 58.4813 67.6313 58.5 67.5188 58.5C66.225 58.5 65.0437 57.6563 64.65 56.3625C64.1812 54.7688 65.0813 53.1 66.6562 52.6312L81.6562 48.1312C83.2312 47.6625 84.9187 48.5625 85.3875 50.1375C85.8562 51.7312 84.9563 53.4 83.3625 53.8688V53.8688ZM33.6394 44.0663H82.8694C90.81 44.0663 93.1762 53.3925 92.9569 59.8144C92.7356 66.345 85.1213 73.4138 79.4138 73.4138C67.8675 73.4138 65.61 65.8669 58.2544 65.8613C50.8988 65.8669 48.6412 73.4138 37.095 73.4138C31.3875 73.4138 23.7731 66.345 23.5519 59.8144C23.3325 53.3925 25.6988 44.0663 33.6394 44.0663V44.0663Z" fill="#E9322E"/>
</svg>
