<svg width="120" height="120" viewBox="0 0 120 120" fill="none" xmlns="http://www.w3.org/2000/svg">
<g clip-path="url(#clip0_807_771)">
<path d="M6.53446 37.3955L16.4836 27.4464L26.4322 37.3955C27.1797 38.1426 28.1591 38.5163 29.1389 38.5163C30.1187 38.5163 31.0981 38.1426 31.8456 37.3955C33.3405 35.9005 33.3405 33.4767 31.8456 31.9817L21.8973 22.0331L31.846 12.0844C33.3409 10.5894 33.3409 8.16558 31.846 6.67063C30.3506 5.17608 27.9276 5.17608 26.4322 6.67063L16.4836 16.6193L6.53446 6.67023C5.03911 5.17568 2.61608 5.17568 1.12072 6.67023C-0.374226 8.16518 -0.374226 10.589 1.12072 12.084L11.0694 22.0326L1.12113 31.9817C-0.373822 33.4767 -0.373822 35.9005 1.12113 37.3955C1.8686 38.1426 2.848 38.5163 3.82779 38.5163C4.80759 38.5163 5.78699 38.1426 6.53446 37.3955V37.3955Z" fill="#E9322E"/>
<path d="M82.4685 82.6043C80.9732 81.1098 78.5501 81.1098 77.0548 82.6043L67.1061 92.553L57.157 82.6043C55.6617 81.1098 53.2386 81.1098 51.7433 82.6043C50.2483 84.0997 50.2483 86.5231 51.7433 88.018L61.6924 97.9667L51.7433 107.916C50.2483 109.411 50.2483 111.835 51.7433 113.33C52.4908 114.077 53.4702 114.45 54.45 114.45C55.4297 114.45 56.4091 114.077 57.1566 113.33L67.1057 103.38L77.0544 113.329C77.8019 114.076 78.7813 114.45 79.7611 114.45C80.7409 114.45 81.7203 114.076 82.4677 113.329C83.9627 111.834 83.9627 109.41 82.4677 107.915L72.519 97.9667L82.4677 88.018C83.9635 86.5231 83.9635 84.0989 82.4685 82.6043V82.6043Z" fill="#E9322E"/>
<path d="M82.767 28.928L67.3298 15.5086C65.7343 14.1211 63.3165 14.2912 61.9298 15.8864C60.5428 17.4819 60.7121 19.8993 62.3076 21.2864L70.4943 28.4031C46.3311 31.5635 32.024 44.1906 24.0705 54.8637C16.7226 64.7239 13.5024 74.4254 12.3428 78.7021C13.1068 78.6007 13.8842 78.5429 14.6753 78.5429C16.5727 78.5429 18.3993 78.848 20.1133 79.406C21.3909 75.1934 24.3795 67.1797 30.3933 59.1922C40.3484 45.9696 54.1779 38.1825 71.5755 35.968L63.9472 44.7433C62.5601 46.3389 62.7294 48.7563 64.325 50.1433C65.0498 50.7736 65.9444 51.0823 66.8345 51.0823C67.9044 51.0823 68.9682 50.6363 69.725 49.7656L83.1444 34.328C84.5319 32.7324 84.3626 30.3151 82.767 28.928V28.928Z" fill="#E9322E"/>
<path d="M14.6754 84.8477C8.4386 84.8477 3.36426 89.9216 3.36426 96.1588C3.36426 102.396 8.4382 107.47 14.6754 107.47C20.9125 107.47 25.9869 102.396 25.9869 96.1588C25.9869 89.9216 20.9125 84.8477 14.6754 84.8477V84.8477Z" fill="#E9322E"/>
<path d="M108.689 19.7615C102.452 19.7615 97.3774 24.8354 97.3774 31.0726C97.3774 37.3098 102.451 42.3841 108.689 42.3841C114.926 42.3841 120 37.3102 120 31.0726C120 24.8358 114.926 19.7615 108.689 19.7615Z" fill="#E9322E"/>
</g>
<defs>
<clipPath id="clip0_807_771">
<rect width="120" height="120" fill="white"/>
</clipPath>
</defs>
</svg>
