<svg width="120" height="120" viewBox="0 0 120 120" fill="none" xmlns="http://www.w3.org/2000/svg">
<path d="M29.0147 33.4046C29.5891 33.9787 30.3678 34.3014 31.1798 34.3014C31.9919 34.3014 32.7706 33.9787 33.345 33.4046L42.555 24.1946C44.3631 22.3862 45.3592 19.9819 45.3592 17.4244C45.3592 14.867 44.3631 12.4627 42.5547 10.6543C39.4801 7.58003 34.8175 7.03805 31.1832 9.02714C29.7872 8.25857 28.2124 7.8501 26.5748 7.8501C24.0171 7.8501 21.6131 8.84587 19.8047 10.6543C17.9966 12.4627 17.0005 14.867 17.0005 17.4244C17.0005 19.9819 17.9966 22.3862 19.8047 24.1946L29.0147 33.4046ZM24.1353 14.9849C24.7869 14.3333 25.6535 13.9745 26.5751 13.9745C27.4965 13.9745 28.3631 14.3333 29.0147 14.9849C30.2107 16.1807 32.149 16.1807 33.3453 14.9849C34.6904 13.6398 36.8798 13.6398 38.2249 14.9849C38.8768 15.6365 39.2357 16.5031 39.2357 17.4248C39.2357 18.3464 38.8768 19.213 38.2249 19.8646L31.1798 26.9091L24.1353 19.8646C22.7902 18.5191 22.7902 16.3304 24.1353 14.9849Z" fill="#E9322E"/>
<path d="M112.979 21.987C108.452 17.4595 102.433 14.9661 96.0308 14.9661C90.5972 14.9661 85.4426 16.7589 81.2421 20.065C71.8419 12.6913 58.1608 13.3322 49.5054 21.9879C44.9785 26.5182 42.485 32.5381 42.485 38.9387C42.485 40.391 42.6173 41.8335 42.8758 43.2516C41.4262 43.9733 40.0461 44.8438 38.7564 45.8586C29.3569 38.4855 15.6761 39.1255 7.02123 47.7803C2.49372 52.3078 0 58.3278 0 64.7308C0 71.1338 2.49372 77.154 7.02154 81.6816L36.5928 111.253C37.1672 111.827 37.9459 112.15 38.7579 112.15C39.57 112.15 40.3487 111.827 40.9231 111.253L70.4943 81.6816C71.3104 80.8658 72.0505 80.0029 72.7238 79.1055L79.0787 85.4604C79.6532 86.0345 80.4319 86.3573 81.2439 86.3573C82.056 86.3573 82.8349 86.0345 83.4091 85.4604L112.978 55.8882C117.506 51.3635 120 45.3441 120 38.9387C120 32.5348 117.507 26.5145 112.979 21.987ZM38.7579 104.758L11.3519 77.3515C7.98057 73.9802 6.12406 69.498 6.12406 64.7308C6.12406 59.9635 7.98057 55.4813 11.3519 52.1103C14.8312 48.6309 19.4016 46.8911 23.9723 46.8911C28.5427 46.8911 33.1134 48.6309 36.5928 52.1103C37.7888 53.306 39.7271 53.306 40.9234 52.1103C44.2944 48.7393 48.7763 46.8828 53.5439 46.8828C58.3114 46.8828 62.7933 48.7393 66.1643 52.1103C73.1234 59.0694 73.1234 70.3925 66.1643 77.3512L38.7579 104.758ZM108.649 51.557L81.2442 78.9646L75.8296 73.55C79.2251 64.9341 77.4497 54.7348 70.4946 47.78C65.9668 43.2522 59.9472 40.7588 53.5439 40.7588C51.9179 40.7588 50.318 40.9229 48.7598 41.2367C48.6618 40.4774 48.6094 39.7103 48.6094 38.9387C48.6094 34.1729 50.4659 29.6904 53.8366 26.3173C60.7957 19.3582 72.1197 19.3576 79.0794 26.3173C79.6538 26.8914 80.4325 27.2142 81.2445 27.2142C81.2448 27.2142 81.2451 27.2142 81.2451 27.2142C82.0575 27.2142 82.8365 26.8911 83.4106 26.3164C86.7779 22.946 91.2601 21.0901 96.031 21.0901C100.797 21.0901 105.278 22.9466 108.649 26.3173C112.02 29.6883 113.876 34.1705 113.876 38.9387C113.876 43.7075 112.02 48.1882 108.649 51.557Z" fill="#E9322E"/>
</svg>
