<svg width="30" height="24" viewBox="0 0 30 24" fill="none" xmlns="http://www.w3.org/2000/svg">
<g clip-path="url(#clip0_2_2)">
<path fill-rule="evenodd" clip-rule="evenodd" d="M11.5385 23.0769C8.47827 23.0769 5.54342 21.8613 3.37954 19.6974C1.21566 17.5335 0 14.5987 0 11.5385C0 8.47827 1.21566 5.54342 3.37954 3.37954C5.54342 1.21566 8.47827 0 11.5385 0L18.4615 0C21.5217 0 24.4566 1.21566 26.6205 3.37954C28.7843 5.54342 30 8.47827 30 11.5385C30 14.5987 28.7843 17.5335 26.6205 19.6974C24.4566 21.8613 21.5217 23.0769 18.4615 23.0769H11.5385ZM11.5385 20.1923C9.24332 20.1923 7.04218 19.2806 5.41927 17.6577C3.79636 16.0347 2.88462 13.8336 2.88462 11.5385C2.88462 9.24332 3.79636 7.04218 5.41927 5.41927C7.04218 3.79636 9.24332 2.88462 11.5385 2.88462H18.4615C20.7567 2.88462 22.9578 3.79636 24.5807 5.41927C26.2036 7.04218 27.1154 9.24332 27.1154 11.5385C27.1154 13.8336 26.2036 16.0347 24.5807 17.6577C22.9578 19.2806 20.7567 20.1923 18.4615 20.1923H11.5385Z" fill="#ED1C24"/>
<path d="M9.285 6.105H12.6727L17.3573 13.6811V6.105H20.715V16.9719H17.3596L12.6542 9.39346V16.9719H9.28731L9.285 6.105Z" fill="#ED1C24"/>
</g>
<defs>
<clipPath id="clip0_2_2">
<rect width="30" height="23.0769" fill="white"/>
</clipPath>
</defs>
</svg>
