<svg width="33" height="25" viewBox="0 0 33 25" fill="none" xmlns="http://www.w3.org/2000/svg">
<g clip-path="url(#clip0_113_632)">
<path fill-rule="evenodd" clip-rule="evenodd" d="M32.2242 19.0484C31.5956 19.8363 30.0555 20.3984 30.0555 20.3984L18.5984 24.4871V21.4718L27.03 18.487C27.9868 18.1464 28.1338 17.6649 27.356 17.4122C26.5797 17.1587 25.1741 17.2314 24.2166 17.5734L18.5984 19.5393V16.41L18.9222 16.3011C18.9222 16.3011 20.5457 15.7303 22.8285 15.479C25.1113 15.2292 27.9064 15.5131 30.1008 16.3396C32.5736 17.1159 32.8521 18.2604 32.2242 19.0484ZM19.689 13.914V6.20295C19.689 5.29735 19.5209 4.46364 18.6657 4.22762C18.0107 4.01919 17.6043 4.62341 17.6043 5.52828V24.8385L12.3626 23.1857V0.161499C14.5913 0.572542 17.8382 1.54423 19.5837 2.12884C24.0229 3.64301 25.5279 5.52756 25.5279 9.77378C25.5279 13.9125 22.9564 15.4812 19.689 13.914ZM2.74465 21.1566C0.206031 20.4464 -0.216463 18.9663 0.940645 18.1137C2.01004 17.3265 3.82866 16.7339 3.82866 16.7339L11.3444 14.0788V17.1057L5.93601 19.0288C4.98065 19.3694 4.83373 19.8516 5.61001 20.1043C6.38702 20.357 7.79338 20.2851 8.75021 19.9438L11.3444 19.0084V21.7165C11.1799 21.7456 10.9964 21.7746 10.8269 21.8029C8.23196 22.2241 5.4682 22.0484 2.74465 21.1566ZM30.5547 22.3556C30.8829 22.3556 31.1906 22.482 31.4223 22.7151C31.6541 22.9446 31.782 23.251 31.782 23.5764C31.782 23.9032 31.6541 24.2082 31.4223 24.4377C31.1906 24.6693 30.8829 24.7957 30.5547 24.7957C30.2265 24.7957 29.9195 24.6693 29.687 24.4377C29.4553 24.2082 29.3281 23.9032 29.3281 23.5764C29.3281 22.9039 29.8778 22.3556 30.5547 22.3556ZM29.5343 23.5764C29.5343 23.8472 29.6403 24.1022 29.8332 24.2924C30.0255 24.4856 30.2828 24.5902 30.5547 24.5902C31.1183 24.5902 31.5751 24.1356 31.5751 23.5764C31.5751 23.3048 31.4699 23.0499 31.2762 22.8589C31.0839 22.6657 30.8266 22.5618 30.5547 22.5618C30.2828 22.5618 30.0255 22.6657 29.8332 22.8589C29.6403 23.0499 29.5343 23.3048 29.5343 23.5764ZM30.9253 22.9191C31.0598 22.978 31.1278 23.0913 31.1278 23.2525C31.1278 23.3353 31.1102 23.405 31.0744 23.4594C31.0488 23.4987 31.0123 23.5306 30.9713 23.5582C31.0035 23.5771 31.032 23.5996 31.0532 23.6258C31.0824 23.6635 31.0993 23.7238 31.1015 23.8059L31.108 23.9794C31.1102 24.0259 31.1132 24.0615 31.1205 24.0833C31.1278 24.1152 31.1417 24.1356 31.1592 24.1421L31.1775 24.1508V24.1704V24.2002V24.23H31.1475H30.9304H30.9129L30.9041 24.2147C30.8968 24.2002 30.8917 24.1835 30.8866 24.1617C30.8829 24.1421 30.8792 24.108 30.8771 24.0557L30.8661 23.84C30.8632 23.7652 30.8376 23.7187 30.7893 23.694C30.7594 23.6802 30.7097 23.6737 30.6424 23.6737H30.2703V24.2002V24.23H30.2396H30.0628H30.0328V24.2002V22.9024V22.8727H30.0628H30.6673C30.7711 22.8727 30.858 22.8879 30.9253 22.9191L30.9253 22.9191ZM30.2704 23.466H30.649C30.725 23.466 30.7857 23.4522 30.8288 23.4239C30.8683 23.3955 30.8873 23.344 30.8873 23.2692C30.8873 23.1878 30.8602 23.1348 30.8032 23.1065C30.7718 23.0913 30.7279 23.0825 30.6724 23.0825H30.2704V23.466Z" fill="#E9322E"/>
</g>
<defs>
<clipPath id="clip0_113_632">
<rect width="32.5064" height="25" fill="white" transform="translate(0.166016)"/>
</clipPath>
</defs>
</svg>
